<svg xmlns="http://www.w3.org/2000/svg" width="7.5mm" height="7.5mm" viewBox="0 0 7.5 7.5"><path style="fill:#000;fill-opacity:1;fill-rule:nonzero;stroke:none;stroke-width:.35277775" d="m2.913 296.153-.714-.726c.422-.62-.4-1.213-.619-1.327-.766-.406-1.254.36-.902 1.057-1.355-1.17.894-2.424 2.013-1.187.844.933.558 1.97.222 2.183zM3.107 296.14c-.048.04-.062.133-.018.202l.399.409c.07.087.069.032.1-.001.127-.098.14-.192.405-.405a.204.204 0 0 0 .065-.124c-.027-.1.032-.117.062-.174.564-.783 1.064-.594 1.595-.594 1.547.225 1.685-.388 1.706-.606-.283.192-.41.317-1.06.242-1.027-.39-1.622-.333-2-.08-.451.238-.934.681-1.254 1.132z" transform="translate(0 -289.5)"/><path style="fill:#000;fill-opacity:1;fill-rule:nonzero;stroke:none;stroke-width:.35277775" d="M3.558 295.358c.663-.496 1.211-.808 1.685-.707.454-.324 1.63-1.072 1.31-2.133a.966.966 0 0 0-1.454-.679c-.249.163-.514.297-.47.921.175-.159.343-.326.614-.339.192.054.509-.084.324.533-.069.25-.29.488-.711.663-.234.138-1.436.871-1.298 1.74z" transform="translate(0 -289.5)"/><path style="fill:#000;fill-opacity:1;fill-rule:nonzero;stroke:none;stroke-width:.35277775" d="M3.431 294.9c.117-.483.367-.682.626-.853-.053-.492-.269-1.133-.933-1.397-.34-.316-.714-.517-.666-1.173.441-1.036 1.545-.348.96.762.322-.355.942-.162.785-1.507-.42-1.046-1.829-1.468-2.72-.243-.333.517-1.154 1.829.31 2.853.645.313 1.279.208 1.638 1.558z" transform="translate(0 -289.5)"/></svg>