<svg xmlns="http://www.w3.org/2000/svg" width="7.5mm" height="7.5mm" viewBox="0 0 7.5 7.5"><path style="fill:#000;fill-opacity:1;fill-rule:nonzero;stroke:none;stroke-width:.35277775" d="M1.243 295.303c.238-.243.41-.354.565-.429-.053-.8.113-1.145.202-1.65-.507-.127-1.002-.067-1.561-.685.162.59.176 1.15.127 1.697.271.243.572.418.667 1.067zM6.292 295.306c-.239-.243-.41-.354-.565-.429.052-.8-.113-1.145-.203-1.648.508-.128 1.002-.069 1.563-.686-.164.59-.176 1.149-.128 1.697-.272.243-.572.417-.667 1.066z" transform="translate(0 -289.5)"/><path style="fill:#000;fill-opacity:1;fill-rule:nonzero;stroke:none;stroke-width:.35277775" d="M2.67 292.618c-.277.746-.62 1.616-.471 2.532.008.13-.018.178.161.322l1.414 1.388 1.55-1.535c.065-.032.075-.094.053-.175.048-1.092-.274-2.183-.364-2.249-.098-.14.077-.218.215-.31.309 0 1.042-.597 1.125-.586.093-.126.183-.235.298-.315.073-.054.03-.082.205-.065.326-.19.235-.586.096-.703-.317-.18-.63.036-.558.434-.11.09-.476.302-.864.35-.194.025-.386.15-.42.171-.163.024-.264.05-.34.216-.067.049-.117.046-.175.148-.047-.176.11-.277.19-.376.287-.368.462-.816.484-1.374.204-.05.36-.62-.053-.66-.563 0-.556.424-.327.572-.076.295-.156.581-.317.827-.116.056-.189.19-.287.311-.207.176-.44.189-.712-.04-.165-.204-.384-.364-.445-.606.01-.134-.109-.163-.154-.232.227-.45-.133-.588-.236-.576-.351.048-.402.469-.135.673-.076.405.12.56.125.658.065.309.517.665.535.73.132.192.05.136-.054.053-.139-.143-.33-.207-.454-.377-.134-.251-.305-.185-.462-.243-.11-.01-.108.007-.187-.058-.11-.087-.293-.146-.375-.22-.064-.061-.061-.054-.05-.138-.028-.414-.518-.331-.573-.163-.173.244.12.533.265.562.15.19.62.745 1.095.892.118.008.153.132.202.162z" transform="translate(0 -289.5)"/></svg>