<?xml version="1.0" encoding="UTF-8" standalone="no"?>
<!-- Created with Inkscape (http://www.inkscape.org/) -->

<svg
   xmlns:dc="http://purl.org/dc/elements/1.1/"
   xmlns:cc="http://creativecommons.org/ns#"
   xmlns:rdf="http://www.w3.org/1999/02/22-rdf-syntax-ns#"
   xmlns:svg="http://www.w3.org/2000/svg"
   xmlns="http://www.w3.org/2000/svg"
   xmlns:sodipodi="http://sodipodi.sourceforge.net/DTD/sodipodi-0.dtd"
   xmlns:inkscape="http://www.inkscape.org/namespaces/inkscape"
   width="7.5mm"
   height="7.5mm"
   viewBox="0 0 7.5 7.5"
   version="1.1"
   id="svg3478"
   inkscape:version="0.92.3 (2405546, 2018-03-11)"
   sodipodi:docname="elder-sign.svg">
  <defs
     id="defs3472" />
  <sodipodi:namedview
     id="base"
     pagecolor="#ffffff"
     bordercolor="#666666"
     borderopacity="1.0"
     inkscape:pageopacity="0.0"
     inkscape:pageshadow="2"
     inkscape:zoom="5.6"
     inkscape:cx="-23.294109"
     inkscape:cy="15.09637"
     inkscape:document-units="mm"
     inkscape:current-layer="layer1"
     showgrid="false"
     inkscape:window-width="1920"
     inkscape:window-height="1017"
     inkscape:window-x="1912"
     inkscape:window-y="-8"
     inkscape:window-maximized="1" />
  <metadata
     id="metadata3475">
    <rdf:RDF>
      <cc:Work
         rdf:about="">
        <dc:format>image/svg+xml</dc:format>
        <dc:type
           rdf:resource="http://purl.org/dc/dcmitype/StillImage" />
        <dc:title></dc:title>
      </cc:Work>
    </rdf:RDF>
  </metadata>
  <g
     inkscape:label="Layer 1"
     inkscape:groupmode="layer"
     id="layer1"
     transform="translate(0,-289.5)">
    <path
       inkscape:connector-curvature="0"
       id="path1684"
       style="fill:#000000;fill-opacity:1;fill-rule:nonzero;stroke:none;stroke-width:0.35277775"
       d="m 4.0020704,293.47795 c 0.0236,0.019 0.0152,0.0275 -0.0522,0.0289 -0.43815,0.008 -1.01141,-0.35031 -0.56656,-0.90135 0.0127,0.0455 0.0208,0.084 0.0251,0.11995 -0.0208,0.0991 0.0123,0.13758 0.055,0.18873 0.0332,0.0219 0.0346,0.001 0.0427,-0.0275 0.055,-0.12806 0.13511,-0.39546 0.001,-0.57467 0.0797,0.003 0.34043,0.23283 0.40499,0.31961 0.0706,0.0773 0.13794,0.12559 0.0759,0.46849 -0.11713,0.21661 -0.0522,0.28117 0.0137,0.37783 z" />
    <path
       inkscape:connector-curvature="0"
       id="path1686"
       style="fill:#000000;fill-opacity:1;fill-rule:nonzero;stroke:none;stroke-width:0.35277775"
       d="m 4.0698004,293.2945 c 0.0769,-0.14181 0.15134,-0.16686 0.19156,-0.22189 0.0247,0.007 0.0783,-0.13653 0.0921,-0.1831 0.0554,-0.10759 -0.11853,-0.28539 -0.26987,-0.32385 -0.0346,0.001 -0.0554,-0.009 -0.073,-0.0194 -0.0388,-0.01 -0.0663,-0.003 -0.0635,-0.0138 10e-4,-0.0233 0.0674,-0.0441 0.10619,-0.0455 0.0289,-0.0166 0.0508,-0.0194 0.17074,-0.0124 0.0399,-0.018 0.0526,-0.0152 0.0663,-0.0138 l 0.004,-0.0759 c 0.67663,-0.018 0.55281,0.48084 0.26741,0.66958 -0.15134,0.10759 -0.30021,0.22189 -0.49177,0.23988 z m -0.86819,-0.81033 c -0.93839,0.13512 -1.15781,1.08726 0.21908,1.02941 0.11853,-0.004 0.0646,-0.0385 -0.003,-0.0508 -0.10337,0.0176 -0.0385,-0.0275 -0.0882,-0.0483 -0.12524,-0.0536 -0.27834,-0.15981 -0.31962,-0.23142 -0.14075,-0.24695 0.084,-0.51682 0.19156,-0.69886 z" />
    <path
       inkscape:connector-curvature="0"
       id="path1688"
       style="fill:#000000;fill-opacity:1;fill-rule:nonzero;stroke:none;stroke-width:0.35277775"
       d="m 7.1992904,295.47467 c -0.52776,-1.06398 -1.0516301,-1.90041 -1.6577001,-2.48179 -0.1047799,0.0455 -0.2081399,0.0963 -0.3129199,0.19967 l 0.4120499,0.93557 c 0.066,0.11465 0.18873,0.27305 -0.0744,0.13652 -0.2853999,-0.12947 -0.4945899,-0.10901 -0.7358899,-0.15028 0.007,0.0289 0.0247,0.0483 0.055,0.0593 -0.17921,-0.0138 -0.2547,-0.0455 -0.36936,-0.0921 -0.0758,-0.0289 -0.0769,-0.0113 -0.11148,-0.0141 l 0.0564,0.0744 c -0.66816,-0.15275 -1.26788,-0.4258 -1.86866,-0.66957 -0.0261,-0.007 -0.0674,-0.0303 -0.0635,0.0303 -0.0441,0.0787 0.01,0.0744 0.0402,0.12664 0.27834,0.23848 2.81517,1.52436 4.63021,1.84538 z m -4.71029,1.36419 c 0.007,-0.11289 -0.0593,-0.32526 -0.0963,-0.49883 -0.0289,-0.0938 -0.0261,-0.17215 0.0536,-0.0413 0.0441,0.084 0.11853,0.1778 0.14181,0.18451 -0.0176,-0.90664 0.60784,-1.61643 0.96203,-2.07398 0.0607,-0.0441 -0.3295,-0.22331 -0.40499,-0.34855 -0.0289,-0.0427 -0.036,0.01 -0.0815,0.0123 -0.13088,0.19156 -0.34996,0.39688 -0.42016,0.55527 -0.018,0.0388 -0.10901,0.12136 -0.11465,0.14464 -0.0205,0.0346 -0.048,0.0388 -0.0674,-0.004 l -0.0166,-0.0773 c -0.0289,-0.0953 0,-0.10195 0.018,-0.0716 0.0303,0.0522 0.0413,-0.001 0.0469,-0.0208 -0.13371,-0.78246 -0.14323,-1.70603 0.0109,-2.2807 -0.11289,-0.0508 -0.30727,-0.0536 -0.34043,-0.048 -0.13899,1.00294 -0.34043,1.95403 -0.22719,2.98061 0.0275,0.12418 -0.008,0.14182 -0.0289,0.0247 -0.0374,-0.0646 -0.0706,-0.24659 -0.0938,-0.26846 -0.0289,0.75777 0.41204,1.62736 0.65863,1.83127 z m 1.84256,-4.59563 c -0.073,-0.11183 -0.18344,-0.26459 -0.37641,-0.24272 -0.75918,-0.0854 -2.44863,-0.14322 -3.59657004,-0.82691 -0.0494,-0.0536 -0.11289,-0.0314 -0.0494,0.0829 0.30974,0.8502 0.91616004,1.47038 1.64641004,1.91523 0.0208,-0.0688 0.036,-0.13335 0.043,-0.21625 0.002,-0.0716 -0.0279,-0.14182 -0.0815,-0.21202 -0.27693,-0.11712 -0.45896,-0.36795 -0.6724,-0.57326 0.0564,0.019 0.11289,0.0385 0.17357,0.0413 0.0991,0.0247 0.15311,0.018 0.17216,-0.003 -0.0233,-0.003 -0.0413,-0.0166 -0.0607,-0.0374 -0.0674,-0.0247 -0.0632,-0.048 0.0141,-0.0342 0.0603,0.004 0.1143,0.005 0.16792,0.007 0.0635,-0.004 0.1143,0.0138 0.16828,0.0265 0.0328,0.005 0.0645,0.007 0.0935,0 0.0166,-0.0194 0.004,-0.0265 -0.018,-0.0303 -0.40781,-0.14746 -0.37041,-0.13935 -0.39687,-0.14358 -0.0825,-0.0275 -0.0452,-0.0494 0.0141,-0.0314 0.92181,0.30586 2.57139,0.27552 2.75872,0.27834 z m -0.35419,1.53493 c -0.1337,0.12947 0.0759,0.25647 0.20391,0.0868 0.26881,-0.27693 0.68227,-0.57326 1.13559,-0.89711 0.7372999,-0.49601 1.32715,-1.01812 1.88242,-1.54728 -0.15981,0 -0.50165,0.18309 -1.0474001,0.28081 -0.0219,0.006 -0.0455,0.01 -0.0275,0.0374 0.0123,0.0247 -0.003,0.0275 -0.0194,0.0289 -0.27693,0.0621 -0.54962,0.10336 -0.8198499,0.13088 -0.0152,0.01 -0.0109,0.0152 -0.0441,0.0152 -0.0261,-0.001 -0.037,0.01 -0.008,0.0441 0.007,0.006 0.0176,0.01 0.0328,0.0123 0.0123,0.0109 0.0123,0.0194 -0.0123,0.0222 -0.0384,-0.006 -0.0758,0.002 -0.1143,0.0152 -0.0346,0.007 -0.0702,0.0138 -0.14323,0.01 0.002,0.0194 0.0124,0.0247 0.0205,0.0303 0.0663,0.10477 0.14464,0.0963 0.2219,0.10054 0.0303,0.001 0.0607,0.003 0.0787,-0.0166 0.0797,0 0.1598099,0.0123 0.2398899,0 0.0441,0.036 -0.0649,0.12806 -0.10089,0.19438 -0.0413,0.0247 -0.073,0.0635 -0.0896,0.12135 -0.16934,0.18733 -0.34714,0.32526 -0.52353,0.46426 -0.3182,0.2741 -0.61454,0.5595 -0.86536,0.86677 z m -1.25942,-2.22814 c -0.0138,0.0427 -0.0275,0.0773 -0.0427,0.0896 -10e-4,0.0356 0.002,0.0716 -0.0152,0.10195 -0.0152,0.0289 -0.036,0.0399 -0.0677,0.0166 l -0.24377,-0.0346 c -0.0692,0.003 -0.0332,-0.0702 -0.0374,-0.11571 0.16969,-0.63112 0.25647,-1.03223 0.43286,-1.6122 0.0483,0.0109 0.0332,0 0.0635,0.0176 -0.001,-0.0247 -0.0141,-0.13617 -0.007,-0.18168 0.007,-0.0416 0.0233,-0.0967 0.073,0.0152 0.26318,0.59796 0.65864,1.07068 0.87101,1.20015 -0.0702,0.0109 -0.18732,-0.0166 -0.025,0.0868 0.48118,0.33902 1.0668,0.90523 1.32856,1.21815 0.0649,0.0441 -0.0483,0.10054 -0.12277,0.13229 -0.42968,-0.34184 -0.93556,-0.65864 -1.32962,-0.97014 0.0109,0.0469 0.0275,0.0924 0.055,0.13793 -0.32809,-0.13934 -0.28646,-0.17109 -0.43674,-0.26458 -0.036,-0.0688 -0.0374,0.004 -0.018,0.0332 -0.0123,0.0564 0.007,0.0935 0.0236,0.13335 -0.0981,-0.0631 -0.19297,-0.12806 -0.27305,-0.21343 -0.1531,-0.12806 -0.13088,-0.0275 -0.16122,0.0233 -0.0233,0.0871 -0.0593,0.1076 -0.0674,0.18627 z" />
  </g>
</svg>
