<?xml version="1.0" encoding="UTF-8" standalone="no"?>
<!-- Created with Inkscape (http://www.inkscape.org/) -->

<svg
   xmlns:dc="http://purl.org/dc/elements/1.1/"
   xmlns:cc="http://creativecommons.org/ns#"
   xmlns:rdf="http://www.w3.org/1999/02/22-rdf-syntax-ns#"
   xmlns:svg="http://www.w3.org/2000/svg"
   xmlns="http://www.w3.org/2000/svg"
   xmlns:sodipodi="http://sodipodi.sourceforge.net/DTD/sodipodi-0.dtd"
   xmlns:inkscape="http://www.inkscape.org/namespaces/inkscape"
   width="7.5mm"
   height="7.5mm"
   viewBox="0 0 7.5 7.4999998"
   version="1.1"
   id="svg5761"
   inkscape:version="0.92.3 (2405546, 2018-03-11)"
   sodipodi:docname="skull.svg">
  <defs
     id="defs5755" />
  <sodipodi:namedview
     id="base"
     pagecolor="#ffffff"
     bordercolor="#666666"
     borderopacity="1.0"
     inkscape:pageopacity="0.0"
     inkscape:pageshadow="2"
     inkscape:zoom="3.959798"
     inkscape:cx="-48.051741"
     inkscape:cy="35.892381"
     inkscape:document-units="mm"
     inkscape:current-layer="layer1"
     showgrid="false"
     inkscape:window-width="1920"
     inkscape:window-height="1017"
     inkscape:window-x="1912"
     inkscape:window-y="-8"
     inkscape:window-maximized="1"
     units="mm" />
  <metadata
     id="metadata5758">
    <rdf:RDF>
      <cc:Work
         rdf:about="">
        <dc:format>image/svg+xml</dc:format>
        <dc:type
           rdf:resource="http://purl.org/dc/dcmitype/StillImage" />
        <dc:title></dc:title>
      </cc:Work>
    </rdf:RDF>
  </metadata>
  <g
     inkscape:label="Layer 1"
     inkscape:groupmode="layer"
     id="layer1"
     transform="translate(0,-289.50002)">
    <path
       inkscape:connector-curvature="0"
       id="path1682"
       style="fill:#000000;fill-opacity:1;fill-rule:nonzero;stroke:none;stroke-width:0.35277775"
       d="m 3.7883086,289.81492 c -0.56092,0.0208 -1.1602899,0.1972 -1.6813399,0.59796 -0.10478,0.13793 -0.1778,0.23318 -0.32385,0.36406 -0.12665,0.0797 -0.18168,0.11995 -0.32385,0.62019 -0.11007,0.47378 -0.23001,1.21814 -0.0466,1.68381 0.0233,-0.0621 -0.004,-0.33197 0.0741,-0.51259 0.11712,-0.0663 0.0815,-0.28681 0.0815,-0.47131 -0.0208,-0.30586 0.0233,-0.13512 0.0536,-0.0677 0.073,0.37782 0.0402,0.74718 -0.0233,1.137 -0.0455,0.23142 -0.13229,0.30868 -0.018,0.76059 0.0208,0.13794 0.0674,0.23989 0.0483,0.34749 -0.018,0.10054 -0.0744,0.17497 -0.1143,0.25893 -0.0236,0.11995 -0.14605,0.15452 0.0124,0.40394 0.0342,0.12523 0.0977,0.18591 0.17497,0.25752 0.12524,0.12277 0.25365,0.0967 0.32915,0.0317 0.66569,-0.23565 1.0734999,-0.0385 1.1563999,-0.0399 l 0.0783,0.0536 c -0.0204,0.0826 -0.0603,0.17639 -0.0328,0.24271 0.0109,0.0522 -0.0152,0.15135 -0.0896,0.15417 -0.19861,0.1972 -0.31291,0.60783 -0.23706,0.83785 0.066,0.20813 0.17497,0.21484 0.18873,0.11853 -0.008,-0.16263 0.12418,-0.3623 0.13794,-0.32808 -0.0275,0.13229 -0.0303,0.20531 -0.0265,0.31291 0,0.0825 0.0416,0.14323 0.11712,0.16933 0.0402,0.0317 0.16157,0.0526 0.16686,0.0141 0.004,-0.0346 0.0332,-0.0952 0.0621,-0.1531 -0.006,0.0882 -0.007,0.14322 0.0208,0.19967 0.0233,0.0578 0.0632,0.0554 0.0854,0.0593 0.0247,0.01 0.0769,0.018 0.13088,-0.0317 0.0275,-0.0219 0.0413,-0.0617 0.0204,-0.0688 0.008,-0.14323 -0.0593,-0.20955 0.0194,-0.40217 0.0233,-0.12418 0.0649,-0.23459 0.0674,0 0.007,0.073 0.0293,0.13088 0.0194,0.1584 -0.0205,0.0579 -0.0205,0.14605 -0.0124,0.23566 0.0124,0.0579 0.0222,0.11006 0.1584,0.091 0.091,-0.006 0.0854,-0.0317 0.11712,-0.0455 0.036,-0.018 0.0413,0 0.0829,-0.0303 0,-0.0621 -0.036,-0.0896 -0.0692,-0.0967 -10e-4,-0.0275 -0.0138,-0.0317 0.003,-0.0469 0.084,-0.0233 0.0702,-0.0356 0.0868,-0.0632 0.0222,-0.0236 0.0702,0.0427 0.0332,0.0716 -0.004,0.0702 0.003,0.10759 0.0317,0.11712 0.0233,0.0194 0.10196,-0.0483 0.18168,-0.0674 0.0554,-0.0293 0.0773,-0.0568 0.0635,-0.14358 0.0124,-0.0949 -0.0469,-0.073 -0.0399,-0.17921 0.0455,-0.17639 0.0635,-0.11007 0.0716,-0.0123 0.037,0.16545 0.0483,0.2413 0.0924,0.2039 0.21344,-0.121 0.11854,-0.1651 0.2286,-0.19685 0.0607,-0.018 0.0635,-0.036 0.0469,-0.0924 -0.0275,-0.31679 -0.10054,-0.27693 -0.11994,-0.40252 0.018,-0.1912 -0.0399,-0.0935 -0.0896,-0.073 -0.10619,-0.17356 -0.066,-0.11712 -0.25365,-0.11571 -0.0441,0.0138 -0.0452,-0.0219 -0.0536,-0.0522 -0.0399,-0.12665 -0.0318,-0.18873 0.0138,-0.28398 -0.0399,-0.11148 0.0744,-0.16652 0.2025,-0.17498 0.20955,-0.0194 0.61736,-0.14323 1.14406,0.0952 0.10054,0.10583 0.16933,0.073 0.20249,0.0261 0.0508,-0.0744 0.091,-0.0953 0.17498,-0.16122 0.11712,-0.13088 0.0455,-0.22895 0.0399,-0.3362 -0.0607,-0.18485 -0.0318,-0.29492 0.0138,-0.39158 0.0194,-0.18874 -0.0441,-0.38312 -0.0896,-0.56762 -0.0441,-0.17357 -0.0688,-0.34043 -0.139,-0.44097 -0.18626,-0.20814 -0.10901,-0.31962 -0.13511,-0.52635 0.0289,-0.23036 0.0275,-0.39546 0.0811,-0.62583 0.0152,0.2854 -0.0138,0.43568 0.0801,0.57186 0.0427,0.11606 -0.0219,0.26352 0.0607,0.46461 0.0427,-0.10478 0.16404,-0.50165 0.12806,-1.60832 -0.0659,-0.42439 -0.225722,-0.67239 -0.336142,-0.80892 -0.18874,-0.17356 -0.28646,-0.33196 -0.40358,-0.47131 -0.34467,-0.35807 -1.0033,-0.59514 -1.72544,-0.57044 z m -0.93169,3.58987 c 0.47696,0.11288 0.68897,0.23283 0.62971,0.37076 0.01,0.0617 0.0677,0.0356 0.10089,0.0356 0.0124,-0.0317 0.005,-0.0275 -10e-4,-0.0769 0.008,-0.0166 0.0385,-0.0497 0.0688,0.0123 -0.0194,0.11713 -0.0346,0.0759 0.006,0.15699 -0.0497,0.10054 -0.0303,0.1972 0,0.266 0.0536,0.0991 0.0124,0.0882 0.0275,0.19014 -0.0413,-0.01 -0.0677,-0.0123 -0.0868,-0.0688 -0.10477,-0.0938 -0.109,0.0261 -0.13229,0.0247 -0.0317,0.01 -0.0265,0.0469 -0.0275,0.0649 -0.20002,0.0674 -0.17639,0.13229 -0.24835,0.19156 -0.0384,0.10301 -0.27552,0.16369 -0.4850699,0.14605 -0.29881,-0.018 -0.23672,0.008 -0.30163,0.0508 -0.0317,0.0621 -0.0579,0.13653 -0.14746,0.0317 -0.008,-0.0522 -0.0194,-0.0635 -0.0815,-0.0825 -0.28081,-0.19297 -0.31256,-0.61489 -0.30163,-0.74965 0.10055,-0.19862 -0.0247,-0.21661 0.0455,-0.31151 0.0649,-0.23988 0.37607,-0.20002 0.9355699,-0.25223 z m 2.49449,0.0152 c 0.0328,-10e-4 0.0744,0.0109 0.13476,0.0469 0.0882,0.0632 0.14076,0.0469 0.3736,0.16404 0.18203,0.19402 0.26881,0.52916 0.15839,0.76729 -0.38699,0.32244 -0.62547,0.50024 -1.14653,0.31997 -0.13899,-0.0593 -0.21201,-0.043 -0.24518,-0.12136 -0.0564,-0.14076 -0.21096,-0.16968 -0.26317,-0.37747 -0.0716,-0.0222 -0.055,0.037 -0.0938,0.0109 0.0635,-0.12559 0.0413,-0.15028 0.13088,-0.23142 0.0702,-0.12277 0.0564,-0.21379 0.0113,-0.28117 -0.0568,-0.025 -0.0483,-0.0924 0.0494,-0.0773 0.21097,-0.009 0.26741,-0.10618 0.33232,-0.109 0.0769,-0.01 0.0716,-10e-4 0.0935,-0.0825 0.0289,-0.0441 0.0621,0.0123 0.14746,0.0275 0.20814,0.0688 0.22049,-0.0522 0.31715,-0.0564 z m -1.41393,1.0541 c 0.048,0.01 0.0759,0.0716 0.091,0.12417 0.16369,0.36795 0.17886,0.20109 0.24236,0.32244 0.12559,0.28117 0.10477,0.39264 0.0536,0.52635 -0.004,0.084 -0.0219,0.17639 -0.10725,0.21484 -0.0512,0.0222 -0.0512,0.0303 -0.0953,0.0677 -0.0413,0.0205 -0.0854,0.0152 -0.12135,-0.0261 -0.0741,-0.12418 -0.11713,-0.0289 -0.1584,0 -0.008,0.0328 -0.037,0.066 -0.0219,0.11289 -0.0554,0.0247 -0.11183,0.037 -0.16122,-0.0123 -0.0374,-0.0413 -0.13088,-0.006 -0.16969,-0.16828 -0.018,-0.0384 -0.005,-0.0494 -0.0413,-0.0811 -0.0773,-0.0236 -0.0991,-0.1711 -0.006,-0.26599 0.008,-0.0635 0.28116,-0.40676 0.26882,-0.62583 0.10477,-0.15558 0.17639,-0.19826 0.22613,-0.18874 z" />
  </g>
</svg>
