<svg xmlns="http://www.w3.org/2000/svg" width="7.5mm" height="7.5mm" viewBox="0 0 7.5 7.5"><path style="fill:#000;fill-opacity:1;fill-rule:nonzero;stroke:none;stroke-width:.35277775" d="M3.788 289.815c-.56.02-1.16.197-1.681.598a2.232 2.232 0 0 1-.324.364c-.127.08-.182.12-.324.62-.11.474-.23 1.218-.046 1.684.023-.062-.004-.332.074-.513.117-.066.081-.286.081-.471-.02-.306.024-.135.054-.068.073.378.04.748-.023 1.137-.046.232-.133.309-.018.76.02.139.067.24.048.348-.018.101-.075.175-.114.26-.024.12-.146.154.012.403a.503.503 0 0 0 .175.258c.125.123.254.097.33.032.665-.236 1.073-.039 1.155-.04l.079.053c-.02.083-.06.177-.033.243.01.052-.015.151-.09.154-.198.197-.313.608-.237.838.066.208.175.215.19.118-.009-.162.123-.362.137-.328a1.13 1.13 0 0 0-.027.313c0 .083.042.144.118.17.04.031.161.052.166.014a.626.626 0 0 1 .063-.153c-.006.088-.007.143.02.2.024.057.064.055.086.059.024.01.077.018.13-.032.028-.022.042-.062.021-.069.008-.143-.06-.21.02-.402.023-.124.064-.235.067 0 .007.073.03.13.02.158a.614.614 0 0 0-.013.236c.012.058.022.11.158.091.091-.006.086-.032.117-.046.036-.018.042 0 .083-.03 0-.062-.036-.09-.069-.097 0-.027-.014-.031.003-.046.084-.024.07-.036.087-.064.022-.023.07.043.033.072-.004.07.003.108.032.117.023.02.102-.048.181-.067.056-.03.078-.057.064-.144.012-.095-.047-.073-.04-.18.046-.175.064-.11.072-.011.037.165.048.24.092.204.213-.121.119-.166.229-.197.06-.018.063-.036.047-.093-.028-.317-.101-.277-.12-.402.018-.191-.04-.094-.09-.073-.106-.174-.066-.117-.254-.116-.044.014-.045-.022-.053-.052-.04-.127-.032-.189.014-.284-.04-.112.074-.167.202-.175.21-.02.617-.143 1.144.095.1.106.17.073.203.026.05-.074.09-.095.175-.161.117-.13.045-.229.04-.336a.477.477 0 0 1 .013-.392c.02-.189-.044-.383-.09-.567-.043-.174-.068-.34-.138-.441-.187-.209-.11-.32-.135-.527.028-.23.027-.395.08-.626.016.286-.013.436.08.572.043.116-.021.264.061.465.043-.105.165-.502.129-1.608-.066-.425-.226-.673-.337-.81-.188-.173-.286-.331-.403-.47-.345-.359-1.003-.596-1.726-.571zm-.931 3.59c.477.113.689.233.63.37.01.062.067.036.1.036.013-.032.005-.027 0-.077.007-.016.038-.05.068.013-.02.117-.035.075.006.157-.05.1-.03.197 0 .266.054.099.012.088.028.19-.042-.01-.068-.013-.087-.07-.105-.093-.11.027-.133.026-.031.01-.026.046-.027.064-.2.068-.176.133-.248.192-.039.103-.276.164-.485.146-.3-.018-.237.008-.302.05-.032.063-.058.137-.148.033-.008-.053-.019-.064-.081-.083-.28-.193-.313-.615-.302-.75.1-.198-.024-.216.046-.311.065-.24.376-.2.935-.252zm2.494.015c.033-.001.075.01.135.047.088.063.14.047.373.164.182.194.27.53.159.767-.387.323-.626.5-1.147.32-.139-.06-.212-.043-.245-.121-.056-.14-.21-.17-.263-.378-.072-.022-.055.037-.094.011.064-.125.041-.15.131-.231.07-.123.056-.214.011-.281-.056-.025-.048-.093.05-.078.21-.009.267-.106.332-.109.077-.01.072 0 .094-.082.028-.044.062.012.147.027.208.07.22-.052.317-.056zm-1.414 1.054c.048.01.076.072.091.124.164.368.179.201.243.323.125.28.104.392.053.526-.004.084-.022.176-.107.215-.051.022-.051.03-.095.068-.042.02-.086.015-.122-.027-.074-.124-.117-.028-.158 0-.008.033-.037.066-.022.113-.055.025-.112.037-.161-.012-.038-.041-.131-.006-.17-.168-.018-.039-.005-.05-.041-.081-.078-.024-.1-.171-.006-.266.008-.064.28-.407.269-.626.104-.156.176-.198.226-.189z" transform="translate(0 -289.5)"/></svg>