<?xml version="1.0" encoding="UTF-8" standalone="no"?>
<svg
   xmlns:dc="http://purl.org/dc/elements/1.1/"
   xmlns:cc="http://creativecommons.org/ns#"
   xmlns:rdf="http://www.w3.org/1999/02/22-rdf-syntax-ns#"
   xmlns:svg="http://www.w3.org/2000/svg"
   xmlns="http://www.w3.org/2000/svg"
   xmlns:sodipodi="http://sodipodi.sourceforge.net/DTD/sodipodi-0.dtd"
   xmlns:inkscape="http://www.inkscape.org/namespaces/inkscape"
   width="7.5mm"
   height="7.5mm"
   viewBox="0 0 7.5 7.5"
   version="1.1"
   id="svg22"
   sodipodi:docname="frost-m.svg"
   inkscape:version="1.0.2-2 (e86c870879, 2021-01-15)">
  <defs
     id="defs16" />
  <sodipodi:namedview
     id="base"
     pagecolor="#ffffff"
     bordercolor="#666666"
     borderopacity="1.0"
     inkscape:pageopacity="0.0"
     inkscape:pageshadow="2"
     inkscape:zoom="15.839192"
     inkscape:cx="7.8035371"
     inkscape:cy="21.092718"
     inkscape:document-units="mm"
     inkscape:current-layer="layer1"
     inkscape:document-rotation="0"
     showgrid="false"
     inkscape:window-width="1920"
     inkscape:window-height="1017"
     inkscape:window-x="-8"
     inkscape:window-y="-8"
     inkscape:window-maximized="1" />
  <metadata
     id="metadata19">
    <rdf:RDF>
      <cc:Work
         rdf:about="">
        <dc:format>image/svg+xml</dc:format>
        <dc:type
           rdf:resource="http://purl.org/dc/dcmitype/StillImage" />
        <dc:title></dc:title>
      </cc:Work>
    </rdf:RDF>
  </metadata>
  <g
     inkscape:label="Layer 1"
     inkscape:groupmode="layer"
     id="layer1">
    <path
       style="fill:#000000;stroke-width:0.0117071"
       d="m 3.3650676,7.3619209 c -0.010228,-0.010228 -0.010989,-0.3624208 -8.481e-4,-0.4002144 0.00475,-0.017856 0.030393,-0.038638 0.075935,-0.061633 l 0.068717,-0.034694 V 6.6720809 6.4787824 L 3.471548,6.4980794 C 3.4368887,6.5160036 3.2193643,6.6499892 3.1201006,6.7145586 l -0.043405,0.02823 -4.911e-4,0.1474507 c -4.383e-4,0.125439 -0.00356,0.1501101 -0.020985,0.1652709 -0.035093,0.030528 -0.3539,0.1889686 -0.3626404,0.1802292 C 2.6809321,7.2240924 2.6647991,6.8419259 2.6686241,6.668439 L 2.6718479,6.5238455 3.0903747,6.2599729 3.5089014,5.9960993 V 5.6172662 c 0,-0.2083584 -0.00271,-0.3788331 -0.00602,-0.3788331 -0.011841,0 -0.1420745,0.076326 -0.245671,0.1439883 l -0.105363,0.068819 -0.00585,0.1792296 c -0.00509,0.1552631 -0.00886,0.1825453 -0.028323,0.2040247 -0.020409,0.022521 -0.2920736,0.1837464 -0.4136351,0.2454826 l -0.049778,0.025278 -0.023352,-0.038299 c -0.020503,-0.033632 -0.023352,-0.059106 -0.023394,-0.2091607 -4.42e-5,-0.1890277 -0.00271,-0.181849 0.084832,-0.2261928 l 0.043905,-0.022232 3.57e-5,-0.1883957 3.47e-5,-0.1883965 0.3599528,-0.2240993 C 3.2942486,4.8852255 3.4680808,4.7783591 3.482568,4.7709997 3.5065573,4.758819 3.5089066,4.7493019 3.5089066,4.6645221 V 4.571436 L 3.4650147,4.5442153 C 3.4408653,4.5292442 3.3534255,4.4781882 3.270695,4.4307559 3.1454242,4.3589347 3.1167382,4.3467286 3.0991083,4.3577387 3.0874619,4.3650337 2.9391577,4.4497481 2.7695371,4.5460463 2.5999165,4.6423436 2.4130129,4.7488129 2.3541963,4.7826445 l -0.1069392,0.061515 -0.00629,0.1415358 C 2.2159686,5.5492532 2.2076982,5.6650849 2.1903248,5.6944927 2.1788642,5.7138843 2.1060775,5.761556 1.9886032,5.8265844 1.8875143,5.8825433 1.7622238,5.9539266 1.7101806,5.9852049 1.6095205,6.0457016 1.5448182,6.0762364 1.5359861,6.0674004 1.5208507,6.0522586 1.5070155,5.9216796 1.5070155,5.7939717 V 5.6502715 l 0.034914,-0.029383 c 0.019205,-0.016159 0.077775,-0.052184 0.1301651,-0.080066 0.1569275,-0.083501 0.1510093,-0.072772 0.1510093,-0.2738107 0,-0.1325208 -0.00331,-0.1702518 -0.014632,-0.1657984 -0.00806,0.00314 -0.1516064,0.08498 -0.3190164,0.1817972 l -0.3043837,0.1760319 -0.00738,0.097066 c -0.00629,0.082721 -0.011226,0.099724 -0.033557,0.1150587 -0.046577,0.031987 -0.32009024,0.1877435 -0.32967639,0.1877435 -0.005088,0 -0.0173303,-0.015539 -0.0271522,-0.034541 -0.0141148,-0.027288 -0.0178643,-0.07976 -0.0178643,-0.2499836 0,-0.1184949 0.003217,-0.2466151 0.007211,-0.2847116 l 0.007211,-0.069267 0.16826149,-0.093414 C 1.0446567,5.075615 1.1467635,5.0189777 1.1790282,5.0011404 c 0.032267,-0.017839 0.058665,-0.036958 0.058665,-0.04248 0,-0.00551 -0.01665,-0.016948 -0.03701,-0.025379 -0.020355,-0.0084 -0.061181,-0.031835 -0.090728,-0.052015 -0.029545,-0.02018 -0.069523,-0.04477 -0.088842,-0.054662 -0.019315,-0.00989 -0.0565612,-0.029739 -0.0827726,-0.044108 l -0.0476551,-0.026135 -0.0928363,0.053821 c -0.0510647,0.029595 -0.10073989,0.059156 -0.11039782,0.06568 -0.009662,0.00653 -0.042887,0.024336 -0.0738318,0.039588 L 0.55734646,4.9431696 0.39411152,4.8484433 C 0.25015288,4.7648991 0.23087645,4.7501074 0.23087645,4.723157 c 0,-0.040444 0.0419208,-0.078107 0.16214845,-0.1456839 0.0537701,-0.030224 0.12521485,-0.072508 0.15877229,-0.093979 0.0335564,-0.021469 0.0896614,-0.054813 0.1246746,-0.074103 0.0350158,-0.01929 0.0936101,-0.051582 0.1302135,-0.071753 l 0.0665534,-0.036679 0.15396451,0.077148 c 0.08468,0.042438 0.2312153,0.120994 0.3256337,0.1745778 0.2927358,0.1661342 0.3226857,0.1780699 0.3535407,0.1408929 0.00823,-0.00993 0.064195,-0.045492 0.1243446,-0.079023 0.060149,-0.033532 0.1093647,-0.063949 0.1093716,-0.067588 7.5e-6,-0.00365 -0.022377,-0.018975 -0.049741,-0.034074 C 1.8629865,4.4977963 1.7668412,4.4394963 1.6766971,4.3833388 1.5865531,4.3271849 1.4601167,4.2535613 1.3957279,4.2197383 1.2845728,4.1613535 1.0929606,4.0439442 1.0998381,4.0384391 1.1208663,4.0216102 1.4807699,3.8185938 1.4893846,3.8187023 c 0.011295,1.324e-4 0.3226351,0.1839696 0.5151099,0.304145 0.051514,0.032165 0.1461997,0.089186 0.2104205,0.1267171 L 2.3316795,4.3178064 2.47247,4.2435764 C 2.5986543,4.1770477 2.7430175,4.0959323 2.8678889,4.0214036 l 0.043905,-0.026202 -3.589e-4,-0.2242045 -3.588e-4,-0.2242044 -0.082526,-0.05014 -0.082526,-0.05014 -0.037119,0.02286 C 2.6884882,3.4819437 2.5901278,3.5330917 2.4903254,3.5830377 2.3905234,3.6329827 2.29677,3.6830828 2.281985,3.6943746 2.2672,3.7056696 2.219291,3.7285846 2.1755233,3.7453126 L 2.095942,3.7757229 1.9214346,3.6721985 C 1.8254541,3.6152545 1.7119536,3.5491354 1.6692088,3.5252564 1.6144884,3.4946855 1.5871238,3.4713079 1.5767405,3.4462252 1.5573241,3.3993425 1.5591902,3.397697 1.7527798,3.291359 1.9307717,3.1935872 1.8974475,3.1948017 2.0447244,3.280722 l 0.075367,0.043964 0.09991,-0.050564 C 2.2749514,3.246308 2.3216736,3.221793 2.3238295,3.21964 2.3307795,3.21269 1.7544715,2.8736367 1.7357576,2.8736367 c -0.00992,0 -0.043082,0.017788 -0.073679,0.039528 -0.030597,0.02174 -0.074078,0.048756 -0.09661,0.060039 -0.022538,0.011283 -0.096291,0.056044 -0.1638991,0.099471 -0.067605,0.04343 -0.2002321,0.1245074 -0.2947192,0.180177 L 0.9350559,3.3540698 0.76734741,3.2526789 C 0.67510733,3.1969151 0.5627612,3.1304312 0.51768872,3.1049397 0.3471011,3.008461 0.18894719,2.9151698 0.16377199,2.8961742 0.13794294,2.8766896 0.13952919,2.8753493 0.30425704,2.7771389 0.39588939,2.7225115 0.48287241,2.6715537 0.49755305,2.663906 0.52540995,2.649393 0.52822565,2.650775 0.86005052,2.8418895 l 0.073101,0.042098 0.11421298,-0.075299 C 1.1101769,2.7672696 1.1972608,2.7084242 1.2408736,2.6779156 1.3361454,2.6112686 1.3495557,2.6280817 1.0847121,2.482113 L 0.90122513,2.3809821 0.89272134,2.119336 C 0.88457495,1.8697874 0.8853528,1.8551458 0.90857265,1.8026546 l 0.0243446,-0.055035 0.0382302,0.023115 c 0.0615501,0.037204 0.21084125,0.121469 0.24896055,0.1405122 0.070642,0.035287 0.076097,0.045592 0.076097,0.143755 v 0.090888 l 0.043862,0.027297 c 0.061421,0.038222 0.3242509,0.1840475 0.3269154,0.1813831 0.00119,-0.00119 -8.484e-4,-0.1315181 -0.00458,-0.2895795 L 1.6556195,1.7776052 1.4788455,1.6725535 1.3020717,1.5675018 1.302244,1.3491731 c 8.9e-5,-0.1200803 0.0039,-0.2220031 0.0084,-0.2264938 0.00449,-0.00449 0.1740603,0.088458 0.3768201,0.2065542 l 0.368655,0.2147184 0.00594,0.059005 c 0.00331,0.032454 0.014064,0.2719242 0.023946,0.5321623 0.00988,0.260237 0.01929,0.4741726 0.020892,0.4754102 0.012241,0.00941 0.3275786,0.1928667 0.3315214,0.1928667 0.0028,0 0.00509,-0.097223 0.00509,-0.2160501 V 2.3712953 l 0.039554,-0.00738 c 0.032852,-0.00619 0.055161,0.00136 0.1317048,0.044432 0.050682,0.028518 0.1173956,0.064272 0.1482516,0.079455 0.03086,0.015184 0.061642,0.034278 0.068411,0.042429 0.00721,0.00863 0.015514,0.1187698 0.019993,0.2638235 l 0.00773,0.2489953 0.1229236,0.072431 c 0.067605,0.039843 0.1281923,0.072729 0.1346314,0.073102 0.00644,3.587e-4 0.095998,-0.04858 0.1990191,-0.1087661 L 3.5030304,2.9703853 3.5061733,2.6278529 C 3.5090432,2.3122858 3.5076012,2.2840333 3.4886004,2.2689888 3.4278999,2.2210289 3.028334,1.9606009 2.99242,1.9455955 2.9457664,1.9261028 2.5597859,1.6716175 2.5461834,1.6513826 2.5414334,1.6443426 2.5375134,1.3817647 2.5374034,1.06787 l -1.722e-4,-0.57071853 0.055611,4.831e-5 c 0.042624,3.821e-5 0.067912,0.008403 0.1082898,0.035762 0.028976,0.0196455 0.08429,0.0518196 0.1229247,0.0715072 0.1215521,0.0619384 0.1112166,0.0201116 0.1112166,0.45007402 v 0.3781604 l 0.09073,0.05797 c 0.049902,0.031886 0.1065343,0.069242 0.1258509,0.083009 0.027467,0.019578 0.1888352,0.121061 0.3424306,0.2153445 0.011553,0.00713 0.014632,-0.051252 0.014632,-0.2771105 V 1.2258229 L 3.4761847,1.21226 c -0.018,-0.00746 -0.071999,-0.039689 -0.1199973,-0.071635 -0.047994,-0.031937 -0.093847,-0.058089 -0.1018961,-0.058105 -0.011434,-2.38e-5 -0.014632,-0.0931328 -0.014632,-0.42643937 V 0.22962367 l 0.030308,-0.0360173 c 0.016668,-0.0198146 0.036423,-0.035694 0.043896,-0.035296 0.00746,3.9871e-4 0.084715,0.0413947 0.1716384,0.0911039 l 0.1580455,0.0903781 0.00585,0.25625202 0.00585,0.25625215 0.046832,0.0251592 c 0.025753,0.0138352 0.084955,0.0500304 0.1315556,0.0804223 l 0.084722,0.055263 0.00305,0.4076914 0.00305,0.4076913 0.08195,-0.051354 c 0.045075,-0.028238 0.1140893,-0.067783 0.1533725,-0.08787 l 0.071422,-0.036517 0.00755,-0.1651732 c 0.00416,-0.090845 0.00755,-0.3585262 0.00763,-0.59484524 l 4.42e-5,-0.42967207 0.049758,-0.0341075 c 0.027365,-0.0187633 0.077198,-0.0479685 0.1107414,-0.0649084 0.033539,-0.0169398 0.085939,-0.0466202 0.1164356,-0.0659595 0.1125808,-0.071397 0.1211043,-0.0524296 0.1211043,0.26956955 v 0.24509842 l 0.090738,-0.0542113 C 4.9599868,0.62426969 4.963357,0.62272087 5.0074055,0.63345198 l 0.040971,0.00998 0.00322,0.2012211 0.00322,0.20122032 -0.079294,0.043066 C 4.9319145,1.112621 4.8619838,1.154518 4.8201313,1.182041 4.7782783,1.209558 4.7217373,1.24325 4.6944846,1.256907 l -0.049555,0.024828 -0.00314,0.2894661 -0.00314,0.2894659 -0.07893,0.052829 C 4.4624833,1.9785814 4.3246395,2.0642817 4.2698775,2.0937023 4.2473388,2.1058062 4.1683177,2.153563 4.0942717,2.199817 c -0.074044,0.046255 -0.1438509,0.08755 -0.1551182,0.091764 -0.018857,0.00704 -0.020485,0.034439 -0.020485,0.3447311 V 2.973381 l 0.09073,0.054101 c 0.049902,0.029756 0.1369682,0.07899 0.1934826,0.1093989 l 0.1027529,0.055298 0.1483253,-0.084528 C 4.5355359,3.0611588 4.6486618,2.9944329 4.7053451,2.9593708 L 4.8084059,2.8956166 V 2.7675537 c 0,-0.070438 -0.00305,-0.1280692 -0.00678,-0.1280692 -0.00373,0 -0.063949,0.029239 -0.1338111,0.064967 -0.069861,0.035737 -0.14319,0.069608 -0.1629575,0.075282 l -0.03594,0.010312 V 2.5709818 2.3519245 l 0.1450621,-0.078895 c 0.079786,-0.043397 0.165393,-0.092814 0.1902398,-0.109823 0.074909,-0.051276 0.3208809,-0.1793161 0.3444809,-0.1793161 0.047417,0 0.057672,0.053304 0.059029,0.3067288 7.031e-4,0.1307071 0.00466,0.2673199 0.00878,0.3035833 l 0.00755,0.065934 0.071737,-0.042523 c 0.039452,-0.023387 0.1000398,-0.059215 0.1346311,-0.079624 0.034592,-0.020409 0.074747,-0.045678 0.089233,-0.056153 l 0.026339,-0.019051 V 2.0139454 1.5651058 l 0.079023,-0.046586 c 0.043458,-0.025617 0.165942,-0.092806 0.2721832,-0.1493014 0.1062418,-0.056493 0.2221416,-0.1199676 0.2575551,-0.1410491 0.035414,-0.021079 0.083748,-0.041929 0.107403,-0.046331 l 0.043015,-0.00797 0.00738,0.050895 c 0.00407,0.027992 0.00577,0.1246457 0.00383,0.2147897 l -0.00357,0.1639007 -0.1861486,0.098251 -0.1861496,0.098252 0.00704,0.2045692 c 0.0039,0.1125128 0.00938,0.2069231 0.012257,0.2098003 0.00288,0.00288 0.082416,-0.03488 0.1767526,-0.083917 l 0.1715215,-0.089147 0.060905,0.028187 c 0.1169266,0.054118 0.2561194,0.1457984 0.2793452,0.1839899 0.012545,0.02063 0.021215,0.038341 0.019255,0.03935 -0.00196,0.00102 -0.03253,0.020757 -0.067945,0.043889 -0.035414,0.023123 -0.1449159,0.089644 -0.2433397,0.1478181 l -0.1789513,0.1057723 0.038468,0.022995 c 0.021154,0.012647 0.091148,0.050548 0.1555371,0.084231 L 6.4884407,2.758728 6.6757529,2.6544668 c 0.1030219,-0.057351 0.2080002,-0.1185434 0.2332849,-0.1359971 0.075868,-0.05237 0.086883,-0.051353 0.2205587,0.02035 0.1425597,0.07647 0.2193117,0.1296148 0.2193117,0.1518608 0,0.020036 -0.051819,0.072406 -0.092205,0.093176 C 7.2191724,2.8031577 7.088722,2.879491 6.8338017,3.031322 6.5982697,3.1715992 6.5084958,3.215462 6.47688,3.2057038 6.4639188,3.2017171 6.3031725,3.1177873 6.1196645,3.0192243 5.9361564,2.9206623 5.7805192,2.8383688 5.7738036,2.8363508 5.760554,2.832364 5.2445678,3.1131652 5.1615593,3.1695295 c -0.027941,0.018975 -0.046382,0.038663 -0.040979,0.043761 0.017915,0.016872 0.2062912,0.1173253 0.2312109,0.1232953 0.016499,0.00399 0.077784,-0.025057 0.1881345,-0.089077 l 0.1636625,-0.094941 0.22267,0.1138561 c 0.2185559,0.1117519 0.3808036,0.203726 0.3806237,0.2157642 -5.31e-4,0.035567 -0.2710506,0.2151411 -0.3452672,0.2291896 -0.026924,0.00509 -0.059369,-0.00577 -0.1390192,-0.046391 -0.073671,-0.037612 -0.109434,-0.050063 -0.1229245,-0.042811 -0.010469,0.0056 -0.084722,0.047993 -0.1650265,0.09415 -0.080303,0.046154 -0.1489084,0.084848 -0.1524617,0.085982 -0.00594,0.00187 -0.3411167,-0.1741613 -0.5869718,-0.3082651 l -0.1010605,-0.055127 -0.094932,0.053948 -0.094931,0.053948 -8.82e-5,0.2239271 c -8.82e-5,0.1652013 0.00373,0.2269936 0.01453,0.2356202 0.00806,0.00644 0.1015588,0.060285 0.207801,0.1196833 0.1062418,0.059395 0.2418073,0.1368936 0.3012577,0.1722206 l 0.1080913,0.064229 0.1728778,-0.093914 c 0.095082,-0.051649 0.1965846,-0.104071 0.2255591,-0.1164847 0.028976,-0.01241 0.1206564,-0.060166 0.203737,-0.1061261 0.083077,-0.045958 0.1553854,-0.083553 0.1606836,-0.083553 0.00789,0 0.1942307,0.1038576 0.474232,0.2643521 0.039664,0.022733 0.1081866,0.1059253 0.095454,0.1158858 -0.020875,0.016329 -0.3557286,0.1817004 -0.3679255,0.1817004 -0.00904,0 -0.03611,-0.012427 -0.060182,-0.027627 -0.024065,-0.015193 -0.0669,-0.038807 -0.095177,-0.052465 l -0.05142,-0.024845 -0.1065378,0.052455 c -0.058596,0.028849 -0.1366229,0.069913 -0.1733943,0.091246 l -0.066859,0.03879 0.061007,0.036017 c 0.033557,0.019815 0.097882,0.055942 0.1429534,0.080287 0.045075,0.024345 0.1362404,0.075307 0.2025954,0.1132432 l 0.1206438,0.068979 0.049877,-0.024141 c 0.027433,-0.013283 0.054127,-0.02415 0.059327,-0.02415 0.00517,0 0.095364,-0.047409 0.2003731,-0.1053629 0.1050086,-0.057953 0.2039088,-0.1053629 0.2197787,-0.1053629 0.050302,0 0.3710326,0.2012118 0.3707196,0.2325724 -8.82e-5,0.00895 -0.043499,0.034753 -0.1755313,0.1043411 C 6.5506023,5.1090719 6.505995,5.1345406 6.505995,5.1454294 c 0,0.00365 0.06322,0.04248 0.1404906,0.086231 0.1322018,0.074849 0.1990132,0.1298903 0.1990132,0.163944 0,0.00815 -0.00922,0.02275 -0.020485,0.032403 -0.030614,0.026237 -0.2152562,0.1348832 -0.2737148,0.161055 L 6.500217,5.6119314 6.453352,5.5844824 C 6.4275711,5.5693843 6.3644327,5.5348946 6.3130356,5.5078271 6.2616403,5.4807679 6.2063227,5.4495186 6.1901119,5.438381 6.1568777,5.4155632 6.0047173,5.3321211 5.9963359,5.3321211 c -0.00297,0 -0.00534,0.1066806 -0.00509,0.2370681 l 3.079e-4,0.2370672 0.2157761,0.1220221 c 0.1186767,0.067113 0.2185612,0.1292814 0.221966,0.1381522 0.0034,0.00887 0.0097,0.089702 0.013996,0.1796225 0.00577,0.1215461 0.00383,0.1754572 -0.00755,0.2101318 -0.00848,0.025651 -0.018068,0.046636 -0.021342,0.046636 -0.00331,0 -0.1894483,-0.1032279 -0.4137257,-0.2293948 L 5.5928942,6.0440329 5.5913674,5.8783142 C 5.5905191,5.7871692 5.5865321,5.5706583 5.5825903,5.3971791 L 5.5753778,5.0817627 5.4056259,4.9872273 C 5.3122618,4.9352297 5.1976849,4.8678703 5.1510101,4.8375328 5.0700024,4.7848821 4.980576,4.7350578 4.9670778,4.7350578 c -0.00896,0 -0.00789,0.3132237 0.00127,0.3802598 0.00746,0.054567 0.00964,0.057018 0.1036652,0.1176773 0.1108061,0.071482 0.1060966,0.059827 0.1180921,0.2922882 0.00746,0.1441867 -0.00263,0.2048737 -0.03399,0.2048737 -0.027653,0 -0.44629,-0.2337125 -0.554008,-0.3092861 C 4.5781304,5.4040418 4.5768753,5.3919116 4.5697664,5.107261 4.565695,4.9444017 4.5591974,4.7384916 4.5553209,4.6496825 l -0.00704,-0.1614707 -0.06266,-0.040079 c -0.034465,-0.022047 -0.089018,-0.05344 -0.1212362,-0.069769 l -0.05858,-0.02968 -0.1516835,0.087159 c -0.083425,0.047933 -0.1704427,0.099311 -0.1933683,0.1141649 l -0.041683,0.027009 -1.322e-4,0.4352373 -1.333e-4,0.4352373 0.067317,0.031563 c 0.093699,0.043931 0.3048658,0.1657389 0.3541381,0.2042825 0.022539,0.017627 0.1083044,0.070761 0.1905985,0.1180599 0.082298,0.047307 0.1652674,0.1013012 0.184386,0.1199938 l 0.03476,0.03399 v 0.5116803 0.5116805 l -0.027092,0.025456 c -0.014904,0.014006 -0.03684,0.025456 -0.048749,0.025456 -0.023767,0 -0.2352546,-0.1142844 -0.2958569,-0.1598786 l -0.038053,-0.02863 V 6.4966694 6.1521928 l -0.090485,-0.052965 c -0.049767,-0.029129 -0.093872,-0.052965 -0.098013,-0.052965 -0.00416,0 -0.055822,-0.028976 -0.1148441,-0.06439 -0.059021,-0.035414 -0.1097436,-0.06439 -0.1127123,-0.06439 -0.00297,0 -0.00543,0.1361192 -0.00543,0.3024875 0,0.1663675 -0.00348,0.4302682 -0.00773,0.586445 l -0.00773,0.2839574 -0.041996,0.026364 C 3.8382157,7.1312347 3.7692667,7.1712547 3.7080972,7.2056687 3.6469302,7.2400827 3.5679048,7.2877277 3.5324914,7.311551 3.4707144,7.353107 3.3829106,7.379572 3.3652883,7.361955 Z M 3.9068957,4.1110525 4.1000619,4.0025086 4.1028629,3.7746423 4.1056639,3.546776 3.9214492,3.4392074 C 3.8201314,3.3800417 3.7286536,3.3283616 3.7181659,3.3243557 3.7059085,3.3196991 3.6317174,3.3580901 3.5104276,3.4319254 l -0.1886688,0.1148509 -4.41e-5,0.2291269 -4.41e-5,0.2291259 0.084876,0.047247 c 0.046679,0.025982 0.1322901,0.074027 0.1902397,0.106761 0.057953,0.032735 0.1079984,0.059751 0.1112167,0.060039 0.00322,3.054e-4 0.092779,-0.048324 0.19902,-0.1080221 z"
       id="path52" />
  </g>
</svg>
