<svg xmlns="http://www.w3.org/2000/svg" width="7.5mm" height="7.5mm" viewBox="0 0 7.5 7.5"><path style="fill:#000;fill-opacity:1;fill-rule:nonzero;stroke:none;stroke-width:.35277775" d="M1.862 291.567c-.289-.078-.11-.362.011-.496.361-.377.437-.828.998-.923.845-.401 1.918-.573 2.627.047.07.044.086.12.034.234-.065.292-.088.566-.223.646-.016.475-.247.488-.202.627-.192.234-.25.342-.27.54.015.224-.217.628-.457 1.01a.972.972 0 0 1-.565-.377c-.117-.135-.196-.227-.432-.311-.268-.062-.624-.214-.826-.439-.028-.219-.153-.208-.21-.234-.162-.201-.394-.183-.485-.324zM4.897 293.206c.106-.124.127-.3.145-.476.27-.234.28-.708.383-.898.044-.327.163-.382.25-.714.058-.135.115-.109.173-.026.177.127.271.36.407.686.228.228.174.62.268.97.264.537.24 1.304.222 1.66-.203-.103-1.008.104-1.48.276-.043-.149.004-.32-.171-.435-.2-.218-.19-.404-.251-.622-.112-.205-.008-.303.054-.421zM1.443 296.477c-.242-1.232-.493-2.245-.372-4.338-.031-.17.082-.21.297-.157.67.515.51.15 1.363.67.454.136.175.337.593.397 1.1.512 1.223.941 1.501 1.66.113.76.193 1.021.193 1.59.006.141-.098.265-.328.171-1.441.001-.929.243-3.19.357.058-.183-.098-.238-.057-.35z" transform="translate(0 -289.5)"/></svg>