<?xml version="1.0" encoding="UTF-8" standalone="no"?>
<!-- Created with Inkscape (http://www.inkscape.org/) -->

<svg
   xmlns:dc="http://purl.org/dc/elements/1.1/"
   xmlns:cc="http://creativecommons.org/ns#"
   xmlns:rdf="http://www.w3.org/1999/02/22-rdf-syntax-ns#"
   xmlns:svg="http://www.w3.org/2000/svg"
   xmlns="http://www.w3.org/2000/svg"
   xmlns:sodipodi="http://sodipodi.sourceforge.net/DTD/sodipodi-0.dtd"
   xmlns:inkscape="http://www.inkscape.org/namespaces/inkscape"
   width="7.5mm"
   height="7.5mm"
   viewBox="0 0 7.5 7.5"
   version="1.1"
   id="svg4051"
   inkscape:version="0.92.3 (2405546, 2018-03-11)"
   sodipodi:docname="auto-fail.svg">
  <defs
     id="defs4045" />
  <sodipodi:namedview
     id="base"
     pagecolor="#ffffff"
     bordercolor="#666666"
     borderopacity="1.0"
     inkscape:pageopacity="0.0"
     inkscape:pageshadow="2"
     inkscape:zoom="7.919596"
     inkscape:cx="-37.071209"
     inkscape:cy="3.2920236"
     inkscape:document-units="mm"
     inkscape:current-layer="layer1"
     showgrid="false"
     inkscape:window-width="1920"
     inkscape:window-height="1017"
     inkscape:window-x="1912"
     inkscape:window-y="-8"
     inkscape:window-maximized="1" />
  <metadata
     id="metadata4048">
    <rdf:RDF>
      <cc:Work
         rdf:about="">
        <dc:format>image/svg+xml</dc:format>
        <dc:type
           rdf:resource="http://purl.org/dc/dcmitype/StillImage" />
        <dc:title></dc:title>
      </cc:Work>
    </rdf:RDF>
  </metadata>
  <g
     inkscape:label="Layer 1"
     inkscape:groupmode="layer"
     id="layer1"
     transform="translate(0,-289.5)">
    <path
       inkscape:connector-curvature="0"
       id="path1690"
       style="fill:#000000;fill-opacity:1;fill-rule:nonzero;stroke:none;stroke-width:0.35277775"
       d="m 2.9129259,296.1529 -0.71367,-0.72636 c 0.42157,-0.61878 -0.40111,-1.2125 -0.61877,-1.3268 -0.76623997,-0.40534 -1.25412997,0.35948 -0.90275997,1.05692 -1.35432002,-1.17016 0.89463997,-2.42394 2.01329997,-1.18675 0.84349,0.9331 0.55809,1.97062 0.2219,2.18299 z" />
    <path
       inkscape:connector-curvature="0"
       id="path1692"
       style="fill:#000000;fill-opacity:1;fill-rule:nonzero;stroke:none;stroke-width:0.35277775"
       d="m 3.1073059,296.14056 c -0.0483,0.0399 -0.0621,0.13229 -0.018,0.20108 l 0.39828,0.40922 c 0.0702,0.0868 0.0691,0.0317 0.10055,-10e-4 0.127,-0.0977 0.13934,-0.19156 0.40534,-0.40499 0.0317,-0.0317 0.0508,-0.0564 0.0646,-0.12417 -0.0275,-0.10055 0.0317,-0.11713 0.0621,-0.17357 0.56373,-0.78282 1.06397,-0.59408 1.5945495,-0.59408 1.54728,0.22472 1.68522,-0.38841 1.70603,-0.60608 -0.28257,0.19156 -0.41063,0.3168 -1.05974,0.24236 -1.0265895,-0.38982 -1.6220795,-0.33337 -2.0009595,-0.0797 -0.4505,0.23707 -0.9331,0.68051 -1.25271,1.13136 z" />
    <path
       inkscape:connector-curvature="0"
       id="path1694"
       style="fill:#000000;fill-opacity:1;fill-rule:nonzero;stroke:none;stroke-width:0.35277775"
       d="m 3.5577959,295.35774 c 0.66287,-0.496 1.21144,-0.80751 1.68558,-0.70696 0.4533195,-0.32385 1.6287695,-1.0721 1.3091595,-2.13325 -0.0166,-0.3623 -0.56233,-1.12183 -1.4537995,-0.67804 -0.24836,0.16263 -0.514,0.29633 -0.46884,0.92075 0.17392,-0.15875 0.34184,-0.32667 0.61348,-0.33902 0.19156,0.0536 0.5083495,-0.0843 0.3238495,0.53305 -0.0691,0.24941 -0.2906895,0.48789 -0.7111995,0.66287 -0.23425,0.13793 -1.43581,0.87101 -1.29823,1.7406 z" />
    <path
       inkscape:connector-curvature="0"
       id="path1696"
       style="fill:#000000;fill-opacity:1;fill-rule:nonzero;stroke:none;stroke-width:0.35277775"
       d="m 3.4311559,294.90019 c 0.11712,-0.48366 0.36653,-0.68227 0.62547,-0.85302 -0.0522,-0.49177 -0.26846,-1.13277 -0.93274,-1.39735 -0.33902,-0.31538 -0.71367,-0.51682 -0.66569,-1.17263 0.44097,-1.03646 1.54481,-0.34855 0.9592,0.762 0.32244,-0.3556 0.94262,-0.16263 0.78564,-1.50742 -0.42052,-1.04599 -1.8288,-1.46791 -2.72027,-0.24271 -0.33232,0.51682 -1.15358997,1.8288 0.31009,2.85256 0.64488,0.31291 1.27882,0.20814 1.6383,1.55857 z" />
  </g>
</svg>
