<?xml version="1.0" encoding="UTF-8" standalone="no"?>
<!-- Created with Inkscape (http://www.inkscape.org/) -->

<svg
   xmlns:dc="http://purl.org/dc/elements/1.1/"
   xmlns:cc="http://creativecommons.org/ns#"
   xmlns:rdf="http://www.w3.org/1999/02/22-rdf-syntax-ns#"
   xmlns:svg="http://www.w3.org/2000/svg"
   xmlns="http://www.w3.org/2000/svg"
   xmlns:sodipodi="http://sodipodi.sourceforge.net/DTD/sodipodi-0.dtd"
   xmlns:inkscape="http://www.inkscape.org/namespaces/inkscape"
   width="7.5mm"
   height="7.5mm"
   viewBox="0 0 7.5 7.5"
   version="1.1"
   id="svg8"
   sodipodi:docname="bless.svg"
   inkscape:version="0.92.3 (2405546, 2018-03-11)">
  <defs
     id="defs2" />
  <sodipodi:namedview
     id="base"
     pagecolor="#ffffff"
     bordercolor="#666666"
     borderopacity="1.0"
     inkscape:pageopacity="0.0"
     inkscape:pageshadow="2"
     inkscape:zoom="11.313709"
     inkscape:cx="-15.357387"
     inkscape:cy="7.767124"
     inkscape:document-units="mm"
     inkscape:current-layer="layer1"
     showgrid="false"
     inkscape:window-width="1920"
     inkscape:window-height="1017"
     inkscape:window-x="-8"
     inkscape:window-y="-8"
     inkscape:window-maximized="1" />
  <metadata
     id="metadata5">
    <rdf:RDF>
      <cc:Work
         rdf:about="">
        <dc:format>image/svg+xml</dc:format>
        <dc:type
           rdf:resource="http://purl.org/dc/dcmitype/StillImage" />
        <dc:title></dc:title>
      </cc:Work>
    </rdf:RDF>
  </metadata>
  <g
     inkscape:label="Layer 1"
     inkscape:groupmode="layer"
     id="layer1"
     transform="translate(0,-289.5)">
    <path
       style="fill:#000000;stroke-width:0.01152219"
       d="m 0.87617063,292.92313 c 0.0503,-0.0476 0.20087997,-0.1556 0.20623997,-0.13245 0.0227,0.0979 0.051,0.19828 0.0957,0.26292 0.0714,0.10321 0.18423,0.10414 0.653,0.056 0.13783,-0.0142 0.25061,-0.0241 0.25061,-0.022 -0.14592,0.19554 -0.10163,0.25549 -8e-5,0.44314 0,0.002 -0.0609,-0.002 -0.13538,-0.0102 -0.0744,-0.008 -0.23343,-0.0219 -0.35324,-0.0311 -0.29394,-0.0225 -0.35344,-0.008 -0.44133,0.10632 -0.0609,0.0783 -0.0494,0.15379 -0.0679,0.23197 -0.004,0 -0.0374,-0.0162 -0.0745,-0.0359 -0.0682,-0.0364 -0.19526997,-0.15701 -0.19479997,-0.18502 1.3e-4,-0.008 0.0169,-0.023 0.0374,-0.0325 0.15084997,-0.0702 0.14193,-0.48313 -0.0117,-0.54248 -0.0407,-0.0157 -0.0309,-0.0453 0.036,-0.10858 z"
       id="path886-3-3-1"
       inkscape:connector-curvature="0"
       sodipodi:nodetypes="cssccccccccccccc" />
    <path
       style="fill:#000000;stroke-width:0.01152219"
       d="m 4.1660821,290.40964 c 0.0476,0.0503 0.1556,0.20088 0.13245,0.20624 -0.0979,0.0227 -0.19828,0.051 -0.26292,0.0957 -0.10321,0.0714 -0.10414,0.18423 -0.056,0.653 0.0142,0.13783 0.0241,0.25061 0.022,0.25061 -0.19554,-0.14592 -0.25549,-0.10163 -0.44314,-8e-5 -0.002,0 0.002,-0.0609 0.0102,-0.13538 0.008,-0.0744 0.0219,-0.23343 0.0311,-0.35324 0.0225,-0.29394 0.008,-0.35344 -0.10632,-0.44133 -0.0783,-0.0609 -0.15379,-0.0494 -0.23197,-0.0679 0,-0.004 0.0162,-0.0374 0.0359,-0.0745 0.0364,-0.0682 0.15701,-0.19527 0.18502,-0.1948 0.008,1.3e-4 0.023,0.0169 0.0325,0.0374 0.0702,0.15085 0.48313,0.14193 0.54248,-0.0117 0.0157,-0.0407 0.0453,-0.0309 0.10858,0.036 z"
       id="path886-3-3"
       inkscape:connector-curvature="0"
       sodipodi:nodetypes="cssccccccccccccc" />
    <path
       style="fill:#000000;stroke-width:0.01152219"
       d="m 6.6826274,293.70768 c -0.0503,0.0476 -0.20088,0.1556 -0.20624,0.13245 -0.0227,-0.0979 -0.051,-0.19828 -0.0957,-0.26292 -0.0714,-0.10321 -0.18423,-0.10414 -0.653,-0.056 -0.13783,0.0142 -0.25061,0.0241 -0.25061,0.022 0.14592,-0.19554 0.10163,-0.25549 8e-5,-0.44314 0,-0.002 0.0609,0.002 0.13538,0.0102 0.0744,0.008 0.23343,0.0219 0.35324,0.0311 0.29394,0.0225 0.35344,0.008 0.44133,-0.10632 0.0609,-0.0783 0.0494,-0.15379 0.0679,-0.23197 0.004,0 0.0374,0.0162 0.0745,0.0359 0.0682,0.0364 0.19527,0.15701 0.1948,0.18502 -1.3e-4,0.008 -0.0169,0.023 -0.0374,0.0325 -0.15085,0.0702 -0.14193,0.48313 0.0117,0.54248 0.0407,0.0157 0.0309,0.0453 -0.036,0.10858 z"
       id="path886-3"
       inkscape:connector-curvature="0"
       sodipodi:nodetypes="cssccccccccccccc" />
    <path
       style="fill:#000000;stroke-width:0.01152219"
       d="m 3.7172335,296.73614 c -0.1369266,-0.0922 -0.2233704,-0.25928 -0.1808219,-0.34948 0.017851,-0.0379 0.097839,-0.0844 0.2022513,-0.1176 0.049435,-0.0158 0.084066,-0.007 0.2003019,0.047 0.08558,0.0402 0.1110605,0.081 0.097215,0.15601 -0.00992,0.0537 -0.054419,0.1353 -0.1055929,0.19358 -0.028786,0.0328 -0.1339935,0.11 -0.1498778,0.11 -0.00272,0 -0.031262,-0.0177 -0.063473,-0.0394 z"
       id="path888"
       inkscape:connector-curvature="0" />
    <path
       style="fill:#000000;stroke-width:0.01152219"
       d="m 3.3958224,296.22977 c -0.047553,-0.0503 -0.1555967,-0.20088 -0.1324502,-0.20624 0.097936,-0.0227 0.1982829,-0.051 0.2629214,-0.0957 0.1032071,-0.0714 0.1041354,-0.18423 0.056029,-0.653 -0.014145,-0.13783 -0.024065,-0.25061 -0.022043,-0.25061 0.1955468,0.14592 0.2554981,0.10163 0.443146,8e-5 0.00231,0 -0.00231,0.0609 -0.010234,0.13538 -0.00792,0.0744 -0.02192,0.23343 -0.031105,0.35324 -0.02253,0.29394 -0.00817,0.35344 0.1063208,0.44133 0.0783,0.0609 0.153786,0.0494 0.2319652,0.0679 0,0.004 -0.016167,0.0374 -0.035933,0.0745 -0.036387,0.0682 -0.1570025,0.19527 -0.185016,0.1948 -0.00839,-1.3e-4 -0.023034,-0.0169 -0.032541,-0.0374 -0.070207,-0.15085 -0.4831301,-0.14193 -0.5424797,0.0117 -0.01573,0.0407 -0.045349,0.0309 -0.1085788,-0.036 z"
       id="path886"
       inkscape:connector-curvature="0"
       sodipodi:nodetypes="cssccccccccccccc" />
    <path
       style="fill:#000000;stroke-width:0.01152219"
       d="m 4.3682089,290.70613 c -0.3070892,0.005 -0.2472492,0.40566 -0.2247771,0.6165 0.016335,0.10365 0.011414,0.21752 0.1048994,0.28577 0.1579102,0.14502 0.333443,0.50167 0.037238,0.59419 -0.2079315,-0.0992 -0.4486058,-0.10428 -0.6774423,-0.0883 -0.1830914,0.0433 -0.542662,0.16978 -0.4959546,-0.15917 0.0092,-0.19826 0.2158143,-0.30154 0.2753744,-0.46658 0.035489,-0.24376 0.099726,-0.52051 -0.043198,-0.74042 -0.1821378,-0.0952 -0.5614175,-0.0273 -0.5853445,0.17502 0.2220155,-0.008 0.5815988,0.20669 0.2421744,0.37315 -0.258205,0.15897 -0.4100893,0.44365 -0.4211024,0.7436 -0.1453545,0.16948 -0.5666405,0.0885 -0.7124131,0.3616 -0.099533,0.16727 -0.341869,0.46641 -0.4373925,0.12006 -0.019884,-0.15496 -0.064087,-0.33977 -0.1892423,-0.11969 -0.1777717,0.24777 -0.054025,0.65221 0.299934,0.57424 0.1513371,-0.007 0.3123682,-0.0167 0.4553768,-0.0584 0.1484775,-0.13294 0.3345835,-0.31412 0.5503954,-0.25056 0.2448105,0.10994 0.015692,0.28576 0.034434,0.45679 -0.071307,0.2682 0.088223,0.54959 0.041725,0.78749 -0.1745646,0.20838 -0.4484034,-0.0194 -0.5927629,-0.16054 -0.087588,-0.0755 -0.2299087,-0.0397 -0.3363666,-0.0739 -0.243217,-0.0556 -0.6256139,0.0326 -0.5214744,0.3614 -0.013738,0.15674 0.2394708,0.47986 0.2335946,0.1646 0.00248,-0.25483 0.2821182,-0.33957 0.3629079,-0.0799 0.1472886,0.21442 0.3780996,0.35958 0.6382845,0.38535 0.3115552,-0.0151 0.1304942,0.43268 0.3325213,0.59439 0.076548,0.19238 0.5637152,0.30476 0.3363603,0.51825 -0.1079685,0.10995 -0.5132806,0.0469 -0.2234184,0.23408 0.1988912,0.15038 0.5965894,0.11782 0.573986,-0.20282 0.014041,-0.18531 -0.00991,-0.38292 -0.055459,-0.55937 -0.136116,-0.14557 -0.3261175,-0.34043 -0.2441253,-0.55299 0.1796548,-0.21618 0.4564317,0.0704 0.6987935,-0.0122 0.1741823,0.0404 0.3442186,-0.0976 0.492348,-0.0808 0.2732386,0.14011 0.05085,0.46967 -0.1000583,0.6182 -0.089324,0.0794 -0.051575,0.22038 -0.083608,0.32566 -0.028849,0.21072 -0.029793,0.57117 0.2706904,0.54803 0.2002748,0.0478 0.6212099,-0.26523 0.2092791,-0.25768 -0.3070532,-0.0411 -0.1991976,-0.32293 0.025551,-0.39897 0.2406952,-0.17077 0.345218,-0.46763 0.3457927,-0.7536 0.2824406,-0.0193 0.587683,-0.0965 0.7530182,-0.34835 0.075711,-0.14788 0.30646,-0.36451 0.375693,-0.0864 0.048541,0.10965 0.039663,0.39787 0.1864547,0.17688 0.144217,-0.20094 0.1533925,-0.62007 -0.1862023,-0.59722 -0.2505909,-0.006 -0.5457164,-0.0134 -0.7207494,0.19737 -0.139415,0.14609 -0.4726582,0.19089 -0.4968253,-0.0643 0.1315977,-0.22607 0.090568,-0.50372 0.078552,-0.75349 -0.1302109,-0.17308 -0.060779,-0.47421 0.2064208,-0.39161 0.1740665,0.0328 0.278448,0.20126 0.4256606,0.27049 0.2451312,0.0276 0.5333656,0.11032 0.746366,-0.0508 0.088147,-0.18872 0.036324,-0.51809 -0.1750636,-0.5891 0.00945,0.19263 -0.1835023,0.59805 -0.3556474,0.27393 -0.152731,-0.21435 -0.3627935,-0.40784 -0.6375601,-0.43104 -0.2309421,0.0442 -0.211251,-0.11935 -0.2323835,-0.28865 -0.047868,-0.28631 -0.2844139,-0.47284 -0.5032436,-0.63569 -0.2446764,-0.29391 0.5561433,-0.18455 0.2876888,-0.4037 -0.105896,-0.076 -0.2406745,-0.10737 -0.3696985,-0.10074 z m -0.6227011,1.62574 c 0.2995578,-0.0248 0.5174268,0.21005 0.6934977,0.41599 0.2887218,0.18412 0.4396359,0.6004 0.2309564,0.89854 -0.1625155,0.20165 -0.3438768,0.39851 -0.5493014,0.556 -0.2450534,0.18779 -0.5982862,0.12177 -0.803252,-0.0942 -0.1808012,-0.2255 -0.4748519,-0.38494 -0.522383,-0.6951 -0.050502,-0.28385 0.1435743,-0.54752 0.3632986,-0.7048 0.1467217,-0.18665 0.3394175,-0.35653 0.5871837,-0.3764 z"
       id="path884"
       inkscape:connector-curvature="0" />
    <path
       style="fill:#000000;stroke-width:0.01152219"
       d="m 7.1889974,293.38627 c -0.0922,0.13693 -0.25928,0.22337 -0.34948,0.18082 -0.0379,-0.0179 -0.0844,-0.0978 -0.1176,-0.20225 -0.0158,-0.0494 -0.007,-0.0841 0.047,-0.2003 0.0402,-0.0856 0.081,-0.11106 0.15601,-0.0972 0.0537,0.01 0.1353,0.0544 0.19358,0.1056 0.0328,0.0288 0.11,0.13399 0.11,0.14987 0,0.003 -0.0177,0.0313 -0.0394,0.0635 z"
       id="path888-5"
       inkscape:connector-curvature="0" />
    <path
       style="fill:#000000;stroke-width:0.01152219"
       d="m 3.8446721,289.90327 c 0.13693,0.0922 0.22337,0.25928 0.18082,0.34948 -0.0179,0.0379 -0.0978,0.0844 -0.20225,0.1176 -0.0494,0.0158 -0.0841,0.007 -0.2003,-0.047 -0.0856,-0.0402 -0.11106,-0.081 -0.0972,-0.15601 0.01,-0.0537 0.0544,-0.1353 0.1056,-0.19358 0.0288,-0.0328 0.13399,-0.11 0.14987,-0.11 0.003,0 0.0313,0.0177 0.0635,0.0394 z"
       id="path888-5-9"
       inkscape:connector-curvature="0" />
    <path
       style="fill:#000000;stroke-width:0.01152219"
       d="m 0.36980063,293.24454 c 0.0922,-0.13693 0.25928,-0.22337 0.34948,-0.18082 0.0379,0.0179 0.0844,0.0978 0.1176,0.20225 0.0158,0.0494 0.007,0.0841 -0.047,0.2003 -0.0402,0.0856 -0.081,0.11106 -0.15601,0.0972 -0.0537,-0.01 -0.1353,-0.0544 -0.19358,-0.1056 -0.0328,-0.0288 -0.11,-0.13399 -0.11,-0.14987 0,-0.003 0.0177,-0.0313 0.0394,-0.0635 z"
       id="path888-5-9-7"
       inkscape:connector-curvature="0" />
  </g>
</svg>
