<svg xmlns="http://www.w3.org/2000/svg" width="7.5mm" height="7.5mm" viewBox="0 0 7.5 7.5"><path style="fill:#000;stroke-width:.01152219" d="M.876 292.923c.05-.047.201-.155.206-.132a.817.817 0 0 0 .096.263c.072.103.184.104.653.056a4.18 4.18 0 0 1 .25-.022c-.145.195-.1.255 0 .443 0 .002-.06-.002-.135-.01a14.9 14.9 0 0 0-.353-.032c-.294-.022-.353-.008-.441.107-.061.078-.05.154-.068.232a.594.594 0 0 1-.075-.036c-.068-.037-.195-.157-.195-.185 0-.008.017-.023.038-.033.15-.07.142-.483-.012-.542-.04-.016-.03-.045.036-.109zM4.166 290.41c.048.05.156.2.133.206a.817.817 0 0 0-.263.096c-.104.071-.105.184-.056.653.014.137.024.25.022.25-.196-.146-.256-.101-.444 0-.002 0 .002-.06.01-.135a14.9 14.9 0 0 0 .032-.354c.022-.293.008-.353-.107-.44-.078-.062-.153-.05-.232-.069 0-.004.017-.037.036-.074.037-.068.157-.196.185-.195.008 0 .023.017.033.037.07.151.483.142.542-.011.016-.041.046-.031.109.036zM6.683 293.708c-.05.047-.201.155-.207.132a.817.817 0 0 0-.095-.263c-.072-.103-.185-.104-.653-.056a4.18 4.18 0 0 1-.25.022c.145-.195.1-.255 0-.443 0-.002.06.002.135.01.074.008.233.022.353.031.294.023.353.008.441-.106.061-.078.05-.154.068-.232.004 0 .037.016.075.036.068.036.195.157.194.185 0 .008-.017.023-.037.033-.15.07-.142.483.012.542.04.016.03.045-.036.109zM3.717 296.736c-.137-.092-.223-.26-.18-.35.017-.037.097-.084.202-.117.05-.016.084-.007.2.047.086.04.111.081.097.156a.48.48 0 0 1-.105.194.607.607 0 0 1-.15.11.56.56 0 0 1-.064-.04z" transform="translate(0 -289.5)"/><path style="fill:#000;stroke-width:.01152219" d="M3.396 296.23c-.048-.05-.156-.201-.133-.206a.817.817 0 0 0 .263-.096c.104-.072.104-.184.056-.653a4.343 4.343 0 0 1-.022-.25c.196.145.256.1.443 0 .003 0-.002.06-.01.135-.008.074-.022.233-.03.353-.023.294-.01.353.105.441.079.061.154.05.232.068a.586.586 0 0 1-.22.27c-.009 0-.024-.017-.033-.038-.07-.15-.483-.142-.543.012-.015.04-.045.03-.108-.036z" transform="translate(0 -289.5)"/><path style="fill:#000;stroke-width:.01152219" d="M4.368 290.706c-.307.005-.247.406-.225.617.017.103.012.217.105.285.158.145.334.502.038.595-.208-.1-.449-.105-.678-.089-.183.044-.543.17-.496-.159.01-.198.216-.301.276-.466.035-.244.1-.521-.044-.74-.182-.096-.561-.028-.585.174.222-.008.582.207.242.373a.909.909 0 0 0-.42.744c-.146.17-.568.088-.713.361-.1.168-.342.467-.438.12-.02-.154-.064-.34-.189-.12-.178.249-.054.653.3.575.151-.007.312-.017.455-.058.149-.133.335-.314.55-.25.246.11.016.285.035.456-.071.268.088.55.042.787-.175.209-.449-.019-.593-.16-.087-.076-.23-.04-.336-.074-.243-.056-.626.033-.522.361-.013.157.24.48.234.165.002-.255.282-.34.363-.08.147.215.378.36.638.385.312-.015.13.433.333.595.076.192.563.305.336.518-.108.11-.513.047-.223.234.198.15.596.118.574-.203a1.762 1.762 0 0 0-.056-.559c-.136-.146-.326-.34-.244-.553.18-.216.456.07.699-.012.174.04.344-.098.492-.081.273.14.05.47-.1.618-.09.08-.052.22-.084.326-.028.21-.03.571.271.548.2.048.621-.265.21-.258-.308-.04-.2-.323.025-.399.24-.17.345-.467.346-.753.282-.02.587-.097.753-.349.075-.148.306-.364.375-.086.049.11.04.398.187.177.144-.201.153-.62-.186-.597-.25-.006-.546-.014-.721.197-.14.146-.473.19-.497-.064.132-.226.09-.504.079-.754-.13-.173-.061-.474.206-.392.174.033.279.202.426.271.245.028.533.11.746-.05.088-.19.036-.519-.175-.59.01.193-.183.598-.356.274-.152-.214-.362-.408-.637-.431-.231.044-.211-.12-.233-.289-.047-.286-.284-.473-.503-.635-.244-.294.556-.185.288-.404a.586.586 0 0 0-.37-.1zm-.622 1.626c.3-.025.517.21.693.416.289.184.44.6.231.898a3.32 3.32 0 0 1-.55.556c-.244.188-.598.122-.803-.094-.18-.225-.474-.385-.522-.695-.05-.284.144-.547.363-.705.147-.186.34-.356.588-.376zM7.189 293.386c-.092.137-.26.224-.35.181-.037-.018-.084-.098-.117-.202-.016-.05-.007-.084.047-.2.04-.086.08-.112.156-.098a.48.48 0 0 1 .194.106c.032.029.11.134.11.15a.531.531 0 0 1-.04.063zM3.845 289.903c.137.092.223.26.18.35-.017.038-.097.084-.202.117-.05.016-.084.007-.2-.047-.086-.04-.111-.08-.097-.156a.48.48 0 0 1 .105-.193.608.608 0 0 1 .15-.11c.003 0 .032.017.064.04zM.37 293.245c.092-.137.26-.224.35-.181.037.018.084.098.117.202.016.05.007.084-.047.2-.04.086-.081.111-.156.097a.48.48 0 0 1-.194-.105.608.608 0 0 1-.11-.15c0-.003.018-.031.04-.064z" transform="translate(0 -289.5)"/></svg>