<?xml version="1.0" encoding="UTF-8" standalone="no"?>
<!-- Created with Inkscape (http://www.inkscape.org/) -->

<svg
   xmlns:dc="http://purl.org/dc/elements/1.1/"
   xmlns:cc="http://creativecommons.org/ns#"
   xmlns:rdf="http://www.w3.org/1999/02/22-rdf-syntax-ns#"
   xmlns:svg="http://www.w3.org/2000/svg"
   xmlns="http://www.w3.org/2000/svg"
   xmlns:sodipodi="http://sodipodi.sourceforge.net/DTD/sodipodi-0.dtd"
   xmlns:inkscape="http://www.inkscape.org/namespaces/inkscape"
   width="7.5mm"
   height="7.5mm"
   viewBox="0 0 7.5 7.4999999"
   version="1.1"
   id="svg5195"
   inkscape:version="0.92.3 (2405546, 2018-03-11)"
   sodipodi:docname="cultist.svg">
  <defs
     id="defs5189" />
  <sodipodi:namedview
     id="base"
     pagecolor="#ffffff"
     bordercolor="#666666"
     borderopacity="1.0"
     inkscape:pageopacity="0.0"
     inkscape:pageshadow="2"
     inkscape:zoom="7.919596"
     inkscape:cx="-40.020041"
     inkscape:cy="14.868341"
     inkscape:document-units="mm"
     inkscape:current-layer="layer1"
     showgrid="false"
     inkscape:window-width="1920"
     inkscape:window-height="1017"
     inkscape:window-x="1912"
     inkscape:window-y="-8"
     inkscape:window-maximized="1"
     units="mm" />
  <metadata
     id="metadata5192">
    <rdf:RDF>
      <cc:Work
         rdf:about="">
        <dc:format>image/svg+xml</dc:format>
        <dc:type
           rdf:resource="http://purl.org/dc/dcmitype/StillImage" />
        <dc:title></dc:title>
      </cc:Work>
    </rdf:RDF>
  </metadata>
  <g
     inkscape:label="Layer 1"
     inkscape:groupmode="layer"
     id="layer1"
     transform="translate(0,-289.50002)">
    <path
       inkscape:connector-curvature="0"
       id="path1710"
       style="fill:#000000;fill-opacity:1;fill-rule:nonzero;stroke:none;stroke-width:0.35277775"
       d="m 3.5366172,293.79878 c 0.0815,0.0935 0.21907,0.0469 0.24941,0 0.0289,-0.0512 0.0621,-0.0526 0.0967,-0.0427 l 0.12135,-0.004 c 0.0162,0.001 0.0303,0.001 0.0233,0.0346 -0.0152,0.11854 -0.0564,0.15558 -0.11041,0.2092 -0.066,0.0554 -0.11007,0.12559 -0.14323,0.25224 l -0.003,0.0469 c 0.007,0.0289 0.0317,0.036 0.0649,0.037 0.10195,0.0388 0.1845,0.0512 0.27834,0.0759 l 0.003,0.0123 h -0.38029 c -0.0251,0.0194 -0.0483,0.0236 -0.0692,0 -0.0522,-0.007 -0.13088,0.0113 -0.14041,-0.0148 l -0.15557,0.002 c 0.0466,-0.037 0.13899,-0.084 0.20919,-0.0935 0.0427,0.005 0.0374,-0.0222 0.036,-0.0441 0.008,-0.0924 -0.0441,-0.11713 -0.0674,-0.1711 -0.0692,-0.0536 -0.11853,-0.14464 -0.17533,-0.22437 l 0.003,-0.16016 c 0.006,0.0141 0.0166,0.0222 0.0388,0.0127 l -0.007,0.0166 c 0.0744,-0.004 0.10478,0.0247 0.12806,0.0564 z m -0.0522,0.86254 c 0.0483,-0.018 0.0825,-0.0208 0.14323,-0.0688 0.0222,-0.0166 0.11183,-0.0124 0.20002,-0.0138 0.0289,0.0631 0.0783,0.0702 0.12383,0.1323 l -0.0166,0.0413 -0.3997,10e-4 -0.0949,-0.0413 -0.008,-0.0265 c 0.036,0 0.0332,-0.0138 0.0526,-0.0247 z m 0.0924,-1.64394 c 0.001,-0.11148 0.0854,-0.15028 0.16651,-0.11712 0.10195,-0.006 0.0995,0.0522 0.0952,0.12135 0.0124,0.0399 0.0152,0.0593 0.0455,0.084 0.0399,0.11995 0.12523,0.17921 0.24095,0.21908 0.16968,0.0455 0.25082,0.0522 0.53763,0.15698 0.23565,0.14217 0.18168,0.28117 0.11712,0.35419 -0.15169,0.19438 -0.26317,0.38312 -0.28822,0.57891 -0.048,0.14464 -0.12665,0.26035 -0.28504,0.31009 -0.0222,0.008 -0.0483,0.0275 -0.0677,0.0455 0.0127,0.0176 0.003,0.0317 0.006,0.0494 h 0.0317 c 0.0166,0.14746 -0.0607,0.13653 -0.0388,0.2413 -0.19121,0.16122 -0.45473,0.14182 -0.71508,0.0399 -0.21343,-0.12241 -0.2921,-0.37747 -0.52635,-0.55104 -0.14178,-0.25364 -0.19717,-0.50729 -0.33616,-0.76094 -0.12418,-0.11289 -0.0773,-0.35277 0.20249,-0.39123 0.0152,-0.006 0.25506,-0.055 0.50447,-0.10759 0.2025,0.009 0.19544,-0.0607 0.24095,-0.13618 0.0222,-0.0759 0.0402,-0.0882 0.0692,-0.13652 z m 0.16651,3.78672 c 0.32385,-0.24236 0.6477,-0.61313 0.97155,-0.95215 0.26035,0.10336 0.5623197,0.22613 0.8226697,0.2674 0.74578,0.18733 0.91934,-0.0455 1.17687,-0.22895 0.46179,-0.42686 0.11994,-0.96449 -0.0716,-1.27988 -0.38171,-0.47131 -0.49072,-0.82408 -0.70979,-1.36701 -0.15699,-0.43568 -0.23813,-0.73201 -0.266,-1.14265 -0.12382,-0.50835 -0.4765997,-1.29928 -1.3063397,-2.07927 -0.51787,-0.39546 -0.53586,-0.38735 -1.05551,-0.004 -0.87241,0.63818 -1.09537,1.25413 -1.34337,1.91946 -0.32668,1.11231 -0.66287,1.8729 -1.15076995,2.65854 -0.52493,0.78951 -0.12946,1.08161 0.15134999,1.3723 0.27445996,0.27023 0.63146996,0.20955 1.25693996,0.1323 0.18733,-0.0303 0.40923,-0.12383 0.57186,-0.24801 0.31432,0.32385 0.6036,0.68616 0.95214,0.95215 z" />
  </g>
</svg>
