<svg xmlns="http://www.w3.org/2000/svg" width="7.5mm" height="7.5mm" viewBox="0 0 7.5 7.5"><path style="fill:#000;fill-opacity:1;fill-rule:nonzero;stroke:none;stroke-width:.35277775" d="M3.537 293.799c.081.093.219.047.249 0 .029-.051.062-.053.097-.043l.121-.004c.016.001.03.001.023.035-.015.118-.056.155-.11.209a.446.446 0 0 0-.143.252l-.003.047c.007.029.031.036.065.037.102.039.184.051.278.076l.003.012h-.38c-.025.02-.049.024-.07 0-.052-.007-.13.012-.14-.015l-.155.002a.51.51 0 0 1 .209-.093c.042.005.037-.022.036-.044.008-.093-.044-.117-.068-.171-.069-.054-.118-.145-.175-.225l.003-.16c.006.014.017.022.039.013l-.007.016c.074-.004.105.025.128.057zm-.053.862c.049-.018.083-.02.144-.068.022-.017.111-.013.2-.014.029.063.078.07.123.132l-.016.041-.4.001-.095-.041-.008-.026c.036 0 .033-.014.053-.025zm.093-1.644c0-.111.085-.15.166-.117.102-.006.1.052.096.122.012.04.015.059.045.084.04.12.125.179.241.219.17.045.25.052.538.157.235.142.181.28.117.354-.152.194-.263.383-.288.579-.048.144-.127.26-.286.31a.227.227 0 0 0-.067.045c.012.018.003.032.006.05h.031c.017.147-.06.136-.038.241-.192.161-.455.142-.715.04-.214-.122-.293-.378-.527-.551-.142-.254-.197-.507-.336-.761-.124-.113-.077-.353.203-.391.015-.006.255-.055.504-.108.203.01.195-.06.241-.136.022-.076.04-.088.07-.137zm.166 3.787c.324-.242.648-.613.972-.952.26.103.562.226.823.267.745.188.919-.045 1.176-.229.462-.426.12-.964-.071-1.28-.382-.47-.49-.824-.71-1.366-.157-.436-.238-.732-.266-1.143-.124-.508-.477-1.3-1.306-2.08-.518-.395-.536-.387-1.056-.003-.872.638-1.095 1.254-1.343 1.92-.327 1.111-.663 1.872-1.151 2.658-.525.79-.13 1.081.151 1.372.275.27.632.21 1.257.132.188-.03.41-.124.572-.248.315.324.604.686.952.952z" transform="translate(0 -289.5)"/></svg>