<svg xmlns="http://www.w3.org/2000/svg" width="7.5mm" height="7.5mm" viewBox="0 0 7.5 7.5"><path style="fill:#000;stroke-width:.01149228" d="M3.341 296.584c-.652.01-1.249-.39-1.586-.932-.295-.467-.503-.986-.673-1.509-.097-.387-.141-.784-.185-1.18.249.843.589 1.71 1.254 2.313.195.197.688.475.672-.016.173-.443.61-.708 1.007-.929a4.127 4.127 0 0 1 1.152-.367c-.396.203-.83.39-1.086.774-.274.388-.385.924-.161 1.362.053.204.399.48-.005.484-.13.01-.26.005-.389 0zm2.264-.156c.148-.815.293-1.654.174-2.482-.01-.32-.309-.443-.59-.377-.705.059-1.359.364-2.005.633-.13.05-.46.235-.202.026.778-.713 1.74-1.268 2.79-1.443.231-.037.6-.159.722.054.242.728.046 1.517-.206 2.214-.18.48-.415.938-.683 1.375zm-2.916-4.362c.027-.978.594-1.97 1.522-2.347-.315.222-.598.514-.689.9-.267.705-.24 2.15.653 2.1.163-.004.528.009.528.009s-1.223.534-1.704.992c-.233-.471-.307-1.198-.31-1.652z" transform="translate(0 -289.5)"/></svg>