<?xml version="1.0" encoding="UTF-8" standalone="no"?>
<!-- Created with Inkscape (http://www.inkscape.org/) -->

<svg
   xmlns:dc="http://purl.org/dc/elements/1.1/"
   xmlns:cc="http://creativecommons.org/ns#"
   xmlns:rdf="http://www.w3.org/1999/02/22-rdf-syntax-ns#"
   xmlns:svg="http://www.w3.org/2000/svg"
   xmlns="http://www.w3.org/2000/svg"
   xmlns:sodipodi="http://sodipodi.sourceforge.net/DTD/sodipodi-0.dtd"
   xmlns:inkscape="http://www.inkscape.org/namespaces/inkscape"
   width="7.5mm"
   height="7.5mm"
   viewBox="0 0 7.5 7.5"
   version="1.1"
   id="svg962"
   inkscape:version="0.92.3 (2405546, 2018-03-11)"
   sodipodi:docname="curse.svg">
  <defs
     id="defs956" />
  <sodipodi:namedview
     id="base"
     pagecolor="#ffffff"
     bordercolor="#666666"
     borderopacity="1.0"
     inkscape:pageopacity="0.0"
     inkscape:pageshadow="2"
     inkscape:zoom="11.2"
     inkscape:cx="-0.92854549"
     inkscape:cy="22.596283"
     inkscape:document-units="mm"
     inkscape:current-layer="layer1"
     showgrid="false"
     inkscape:window-width="1920"
     inkscape:window-height="1017"
     inkscape:window-x="-8"
     inkscape:window-y="-8"
     inkscape:window-maximized="1" />
  <metadata
     id="metadata959">
    <rdf:RDF>
      <cc:Work
         rdf:about="">
        <dc:format>image/svg+xml</dc:format>
        <dc:type
           rdf:resource="http://purl.org/dc/dcmitype/StillImage" />
        <dc:title></dc:title>
      </cc:Work>
    </rdf:RDF>
  </metadata>
  <g
     inkscape:label="Layer 1"
     inkscape:groupmode="layer"
     id="layer1"
     transform="translate(0,-289.5)">
    <path
       style="fill:#000000;stroke-width:0.01149228"
       d="m 3.3410185,296.58389 c -0.6522625,0.01 -1.2486491,-0.38963 -1.5858532,-0.9323 -0.2949498,-0.46631 -0.5034485,-0.98573 -0.6727485,-1.50858 -0.0976151,-0.38663 -0.14159304,-0.78387 -0.18495415,-1.17945 0.24819385,0.84265 0.58847945,1.70965 1.25355725,2.31207 0.1945974,0.19738 0.6883715,0.47556 0.6724558,-0.0152 0.1723255,-0.44331 0.6093932,-0.70822 1.0063202,-0.92919 0.3616412,-0.18228 0.7540072,-0.29791 1.15216,-0.36718 -0.3955429,0.20334 -0.8291772,0.38967 -1.0859272,0.77403 -0.274508,0.3884 -0.3853766,0.92384 -0.16147,1.36217 0.053195,0.20331 0.399016,0.47971 -0.00494,0.48353 -0.1293558,0.01 -0.259189,0.005 -0.3886141,10e-5 z m 2.2640222,-0.1559 c 0.147969,-0.81531 0.2927927,-1.65351 0.1738334,-2.4816 -0.00985,-0.32124 -0.3087501,-0.44371 -0.5896279,-0.37727 -0.7057296,0.0585 -1.3592225,0.36411 -2.0048728,0.63273 -0.1299706,0.0507 -0.4596579,0.23518 -0.2023787,0.0263 0.7776499,-0.71362 1.7393042,-1.26817 2.7893198,-1.4429 0.2321402,-0.0372 0.6001028,-0.15883 0.7228163,0.0542 0.2420876,0.72755 0.045665,1.51669 -0.2059797,2.2138 -0.1802325,0.47993 -0.4150931,0.93812 -0.6831104,1.37465 z m -2.9165193,-4.36151 c 0.02758,-0.97822 0.5941556,-1.97035 1.5220413,-2.34718 -0.3145758,0.22157 -0.5978377,0.51385 -0.6885133,0.89919 -0.2672173,0.70519 -0.2398844,2.15106 0.6534091,2.10024 0.1622638,-0.004 0.5278378,0.009 0.5278378,0.009 0,0 -1.2233872,0.53464 -1.7046377,0.9926 -0.2327685,-0.47146 -0.3066154,-1.19871 -0.3101372,-1.6525 z"
       id="path1518"
       inkscape:connector-curvature="0"
       sodipodi:nodetypes="ccccccccccccccccccccccccccccc" />
  </g>
</svg>
