<?xml version="1.0" encoding="UTF-8" standalone="no"?>
<!-- Created with Inkscape (http://www.inkscape.org/) -->

<svg
   xmlns:dc="http://purl.org/dc/elements/1.1/"
   xmlns:cc="http://creativecommons.org/ns#"
   xmlns:rdf="http://www.w3.org/1999/02/22-rdf-syntax-ns#"
   xmlns:svg="http://www.w3.org/2000/svg"
   xmlns="http://www.w3.org/2000/svg"
   xmlns:sodipodi="http://sodipodi.sourceforge.net/DTD/sodipodi-0.dtd"
   xmlns:inkscape="http://www.inkscape.org/namespaces/inkscape"
   width="7.5mm"
   height="7.5mm"
   viewBox="0 0 7.5 7.5"
   version="1.1"
   id="svg4625"
   inkscape:version="0.92.3 (2405546, 2018-03-11)"
   sodipodi:docname="elder-thing.svg">
  <defs
     id="defs4619" />
  <sodipodi:namedview
     id="base"
     pagecolor="#ffffff"
     bordercolor="#666666"
     borderopacity="1.0"
     inkscape:pageopacity="0.0"
     inkscape:pageshadow="2"
     inkscape:zoom="7.9195959"
     inkscape:cx="-4.0028986"
     inkscape:cy="18.304613"
     inkscape:document-units="mm"
     inkscape:current-layer="layer1"
     showgrid="false"
     inkscape:window-width="1920"
     inkscape:window-height="1017"
     inkscape:window-x="1912"
     inkscape:window-y="-8"
     inkscape:window-maximized="1" />
  <metadata
     id="metadata4622">
    <rdf:RDF>
      <cc:Work
         rdf:about="">
        <dc:format>image/svg+xml</dc:format>
        <dc:type
           rdf:resource="http://purl.org/dc/dcmitype/StillImage" />
        <dc:title></dc:title>
      </cc:Work>
    </rdf:RDF>
  </metadata>
  <g
     inkscape:label="Layer 1"
     inkscape:groupmode="layer"
     id="layer1"
     transform="translate(0,-289.5)">
    <path
       inkscape:connector-curvature="0"
       id="path1698"
       style="fill:#000000;fill-opacity:1;fill-rule:nonzero;stroke:none;stroke-width:0.35277775"
       d="m 1.2426004,295.30302 c 0.23848,-0.24271 0.41064,-0.35419 0.56515,-0.42862 -0.0526,-0.80081 0.11289,-1.14512 0.2025,-1.64959 -0.50694,-0.12806 -1.00189,-0.0674 -1.56140001,-0.68616 0.16264,0.58985 0.17639,1.15076 0.127,1.69757 0.27129,0.24271 0.57186001,0.41769 0.66675001,1.0668 z" />
    <path
       inkscape:connector-curvature="0"
       id="path1700"
       style="fill:#000000;fill-opacity:1;fill-rule:nonzero;stroke:none;stroke-width:0.35277775"
       d="m 6.2919101,295.30584 c -0.23847,-0.24271 -0.41063,-0.35419 -0.56515,-0.42862 0.0526,-0.7994 -0.11289,-1.14512 -0.20249,-1.64818 0.50729,-0.12806 1.00189,-0.0688 1.5628,-0.68615 -0.16404,0.58949 -0.17638,1.14899 -0.12841,1.69756 -0.27128,0.24271 -0.57185,0.41628 -0.66675,1.06539 z" />
    <path
       inkscape:connector-curvature="0"
       id="path1702"
       style="fill:#000000;fill-opacity:1;fill-rule:nonzero;stroke:none;stroke-width:0.35277775"
       d="m 2.6703004,292.61838 c -0.27694,0.74577 -0.62125,1.61537 -0.47131,2.53153 0.008,0.13089 -0.0177,0.1778 0.16121,0.32244 l 1.4139397,1.38783 1.54905,-1.53529 c 0.066,-0.0317 0.0759,-0.0935 0.0536,-0.17498 0.0483,-1.09149 -0.27411,-2.18263 -0.36372,-2.24895 -0.0977,-0.14041 0.0773,-0.21767 0.21484,-0.3101 0.30868,10e-4 1.04176,-0.59654 1.12466,-0.58561 0.0935,-0.12664 0.18309,-0.23565 0.2988,-0.31538 0.073,-0.054 0.0303,-0.0815 0.20426,-0.0649 0.32632,-0.19015 0.2353,-0.58561 0.0963,-0.70273 -0.31679,-0.18063 -0.62971,0.0356 -0.55809,0.43391 -0.11042,0.0896 -0.47555,0.30198 -0.86396,0.35031 -0.19438,0.0247 -0.38594,0.14993 -0.4191,0.17075 -0.16404,0.0233 -0.26458,0.0497 -0.34043,0.21625 -0.0674,0.0483 -0.11712,0.0455 -0.17497,0.14746 -0.0469,-0.17639 0.11041,-0.27693 0.18873,-0.37606 0.28822,-0.36795 0.4632,-0.81598 0.48507,-1.37407 0.20426,-0.0494 0.35983,-0.62018 -0.0536,-0.66005 -0.56233,0 -0.55527,0.42439 -0.32667,0.57185 -0.0759,0.29493 -0.15558,0.58173 -0.3168,0.82692 -0.11571,0.0564 -0.18873,0.19014 -0.28681,0.3115 -0.20778,0.17639 -0.44097,0.18873 -0.71226,-0.0402 -0.16545,-0.20391 -0.38452,-0.36372 -0.4451997,-0.60607 0.0109,-0.13371 -0.10866,-0.16263 -0.15416,-0.23178 0.2271797,-0.4505 -0.1323,-0.58808 -0.23566,-0.57573 -0.35137,0.048 -0.40252,0.46849 -0.13512,0.67239 -0.0759,0.40499 0.11995,0.56092 0.12524,0.65864 0.0649,0.30868 0.5168197,0.66428 0.5348097,0.72919 0.13229,0.19262 0.0508,0.13617 -0.0536,0.0536 -0.1393497,-0.14323 -0.3294897,-0.20673 -0.4547297,-0.37747 -0.1337,-0.25083 -0.3048,-0.18486 -0.46179,-0.24271 -0.11042,-0.01 -0.10759,0.007 -0.18732,-0.0579 -0.10901,-0.0868 -0.2921,-0.14605 -0.375,-0.22049 -0.0635,-0.0607 -0.0607,-0.0536 -0.0494,-0.13794 -0.0279,-0.41345 -0.51823,-0.33055 -0.57327,-0.16263 -0.17250001,0.24413 0.1196,0.5334 0.26565,0.56233 0.14887,0.19015 0.62018,0.74436 1.09431,0.89182 0.11854,0.008 0.15311,0.1323 0.2025,0.16228 z" />
  </g>
</svg>
