<svg xmlns="http://www.w3.org/2000/svg" width="7.5mm" height="7.5mm" viewBox="0 0 7.5 7.5"><path style="fill:#000;fill-opacity:1;fill-rule:nonzero;stroke:none;stroke-width:.35277775" d="M4.002 293.478c.024.019.015.027-.052.029-.438.008-1.012-.35-.567-.901.013.045.021.084.025.12-.02.099.013.137.055.188.034.022.035.001.043-.027.055-.128.135-.396.001-.575.08.003.34.233.405.32.07.077.138.125.076.468-.117.217-.052.281.014.378z" transform="translate(0 -289.5)"/><path style="fill:#000;fill-opacity:1;fill-rule:nonzero;stroke:none;stroke-width:.35277775" d="M4.07 293.295c.077-.142.151-.167.191-.222.025.007.079-.137.092-.183.056-.108-.118-.286-.27-.324a.124.124 0 0 1-.072-.02c-.04-.01-.067-.003-.064-.014.001-.023.067-.044.106-.045.03-.017.051-.02.171-.012.04-.018.053-.016.066-.014l.004-.076c.677-.018.553.48.268.67-.152.107-.3.221-.492.24zm-.868-.81c-.939.134-1.158 1.086.219 1.029.118-.004.064-.039-.003-.051-.104.017-.039-.028-.089-.049-.125-.053-.278-.16-.32-.23-.14-.248.085-.518.192-.7z" transform="translate(0 -289.5)"/><path style="fill:#000;fill-opacity:1;fill-rule:nonzero;stroke:none;stroke-width:.35277775" d="M7.2 295.475c-.528-1.064-1.052-1.9-1.658-2.482a.947.947 0 0 0-.313.2l.412.935c.066.115.188.273-.075.137-.285-.13-.494-.11-.736-.15a.08.08 0 0 0 .055.059c-.179-.014-.254-.046-.369-.092-.076-.03-.077-.012-.111-.015l.056.075c-.668-.153-1.268-.426-1.869-.67-.026-.007-.067-.03-.063.03-.044.08.01.075.04.127.278.239 2.815 1.525 4.63 1.846zm-4.711 1.364c.007-.113-.06-.325-.096-.499-.03-.094-.026-.172.053-.041.044.084.119.178.142.184-.017-.906.608-1.616.962-2.074.06-.044-.33-.223-.405-.348-.029-.043-.036.01-.081.012-.131.192-.35.397-.42.555-.019.04-.11.122-.115.145-.02.035-.048.039-.068-.004l-.016-.077c-.03-.096 0-.102.018-.072.03.052.041-.001.047-.02-.134-.783-.143-1.707.01-2.281a.858.858 0 0 0-.34-.048c-.139 1.002-.34 1.954-.227 2.98.028.124-.008.142-.029.025-.037-.065-.07-.247-.094-.269-.029.758.412 1.628.659 1.832zm1.843-4.596c-.073-.112-.184-.264-.377-.242-.759-.086-2.448-.144-3.596-.827-.05-.054-.113-.032-.05.083.31.85.916 1.47 1.647 1.915a.997.997 0 0 0 .043-.217.337.337 0 0 0-.082-.212c-.277-.117-.459-.367-.672-.573.056.02.113.039.173.042.1.024.153.018.172-.003-.023-.003-.04-.017-.06-.038-.068-.025-.063-.048.014-.034.06.004.114.005.168.007.063-.004.114.014.168.026a.245.245 0 0 0 .094 0c.016-.019.004-.026-.018-.03-.408-.147-.37-.14-.397-.143-.083-.028-.046-.05.014-.032.922.306 2.571.276 2.758.278zm-.355 1.535c-.133.13.076.257.204.087.27-.277.683-.573 1.136-.897.737-.496 1.327-1.018 1.882-1.547-.16 0-.501.183-1.047.28-.022.006-.046.01-.028.038.013.024-.003.027-.019.029-.277.062-.55.103-.82.13-.015.01-.01.016-.044.016-.026-.001-.037.01-.008.044.007.006.018.01.033.012.012.011.012.02-.012.022a.237.237 0 0 0-.115.016.494.494 0 0 1-.143.01c.002.019.012.024.02.03.067.105.145.096.222.1.03.001.061.003.08-.016.079 0 .159.012.239 0 .044.036-.065.128-.1.194a.199.199 0 0 0-.09.122c-.17.187-.348.325-.524.464-.318.274-.615.56-.865.867zm-1.259-2.228c-.014.043-.028.077-.043.09 0 .035.002.071-.015.102-.015.028-.036.04-.068.016l-.243-.034c-.07.003-.034-.07-.038-.116.17-.631.257-1.032.433-1.612.048.01.033 0 .064.017-.001-.024-.015-.136-.007-.181.007-.042.023-.097.073.015.263.598.658 1.07.87 1.2-.07.01-.187-.017-.024.087a8.37 8.37 0 0 1 1.328 1.218c.065.044-.048.1-.123.132-.43-.342-.935-.658-1.33-.97.012.047.028.092.056.138-.328-.14-.287-.171-.437-.265-.036-.068-.037.004-.018.034-.012.056.007.093.024.133a1.403 1.403 0 0 1-.273-.213c-.154-.129-.131-.028-.162.023-.023.087-.059.107-.067.186z" transform="translate(0 -289.5)"/></svg>