<?xml version="1.0" encoding="UTF-8" standalone="no"?>
<svg
   xmlns:dc="http://purl.org/dc/elements/1.1/"
   xmlns:cc="http://creativecommons.org/ns#"
   xmlns:rdf="http://www.w3.org/1999/02/22-rdf-syntax-ns#"
   xmlns:svg="http://www.w3.org/2000/svg"
   xmlns="http://www.w3.org/2000/svg"
   xmlns:sodipodi="http://sodipodi.sourceforge.net/DTD/sodipodi-0.dtd"
   xmlns:inkscape="http://www.inkscape.org/namespaces/inkscape"
   width="210mm"
   height="297mm"
   viewBox="0 0 210 297"
   version="1.1"
   id="svg22"
   sodipodi:docname="frost.svg"
   inkscape:version="1.0.2-2 (e86c870879, 2021-01-15)">
  <defs
     id="defs16" />
  <sodipodi:namedview
     id="base"
     pagecolor="#ffffff"
     bordercolor="#666666"
     borderopacity="1.0"
     inkscape:pageopacity="0.0"
     inkscape:pageshadow="2"
     inkscape:zoom="0.7"
     inkscape:cx="466.30663"
     inkscape:cy="514.77186"
     inkscape:document-units="mm"
     inkscape:current-layer="layer1"
     inkscape:document-rotation="0"
     showgrid="false"
     inkscape:window-width="1920"
     inkscape:window-height="1017"
     inkscape:window-x="-8"
     inkscape:window-y="-8"
     inkscape:window-maximized="1" />
  <metadata
     id="metadata19">
    <rdf:RDF>
      <cc:Work
         rdf:about="">
        <dc:format>image/svg+xml</dc:format>
        <dc:type
           rdf:resource="http://purl.org/dc/dcmitype/StillImage" />
      </cc:Work>
    </rdf:RDF>
  </metadata>
  <g
     inkscape:label="Layer 1"
     inkscape:groupmode="layer"
     id="layer1">
    <path
       style="fill:#000000;stroke-width:0.264583"
       d="m 83.703752,176.5599 c -0.23113,-0.23113 -0.24838,-8.19082 -0.0196,-9.04496 0.10808,-0.40352 0.68689,-0.87329 1.71618,-1.39287 l 1.5531,-0.784 v -4.36862 -4.36861 l -0.84335,0.43612 c -0.78339,0.4051 -5.69945,3.43321 -7.94284,4.89249 l -0.98099,0.63811 -0.0112,3.33243 c -0.01,2.83496 -0.0803,3.39255 -0.47423,3.73518 -0.79309,0.68986 -7.99826,4.27076 -8.19579,4.07323 -0.26312,-0.26313 -0.62782,-8.90031 -0.54137,-12.82118 l 0.072,-3.26784 9.45886,-5.96363 9.45885,-5.96363 v -8.56176 c 0,-4.70897 -0.0613,-8.56176 -0.1363,-8.56176 -0.26766,0 -3.21094,1.72507 -5.55224,3.25419 l -2.38125,1.55522 -0.13229,4.05065 c -0.1146,3.509 -0.20021,4.12559 -0.64019,4.61103 -0.46133,0.509 -6.60097,4.15273 -9.3483,5.54799 l -1.12496,0.57132 -0.5277,-0.86551 c -0.46344,-0.7601 -0.52783,-1.33584 -0.5287,-4.72711 -10e-4,-4.27209 -0.0619,-4.10985 1.91724,-5.11203 l 0.99219,-0.50241 8e-4,-4.25781 7.9e-4,-4.25782 8.13506,-5.06472 c 4.47445,-2.78559 8.40312,-5.2008 8.73054,-5.36712 0.5421,-0.27537 0.59531,-0.49046 0.59531,-2.40644 v -2.10404 l -0.99218,-0.61527 c -0.54571,-0.3384 -2.52197,-1.4923 -4.39169,-2.56423 -2.83117,-1.62313 -3.47948,-1.89901 -3.87794,-1.65017 -0.26314,0.16433 -3.61493,2.07944 -7.44842,4.2558 -3.83348,2.17636 -8.05757,4.58261 -9.38684,5.34722 l -2.41687,1.39021 -0.14192,3.19876 c -0.56509,12.7366 -0.75217,15.35444 -1.14477,16.01906 -0.25889,0.43826 -1.90409,1.51557 -4.55898,2.98531 -2.28465,1.26478 -5.11625,2.87798 -6.29244,3.58489 -2.27498,1.3673 -3.73726,2.05733 -3.93686,1.85773 -0.3421,-0.3421 -0.65484,-3.29334 -0.65484,-6.17958 v -3.24766 l 0.78911,-0.66399 c 0.43401,-0.3652 1.75781,-1.17945 2.94178,-1.80946 3.54661,-1.88719 3.41286,-1.64469 3.41286,-6.18822 0,-2.99502 -0.0753,-3.84775 -0.33073,-3.74711 -0.1819,0.0717 -3.42635,1.92057 -7.20989,4.10868 l -6.87917,3.97838 -0.16622,2.19374 c -0.14166,1.86957 -0.25372,2.25382 -0.75836,2.60036 -1.05268,0.72287 -7.23415,4.24308 -7.45081,4.24308 -0.11549,0 -0.39163,-0.35128 -0.61365,-0.78061 -0.31894,-0.61676 -0.40367,-1.80269 -0.40367,-5.64973 0,-2.67802 0.0736,-5.57358 0.16362,-6.43458 l 0.16363,-1.56545 3.80222,-2.11138 c 2.09123,-1.16126 4.39885,-2.44121 5.12805,-2.84433 0.7292,-0.40313 1.32581,-0.83517 1.32581,-0.96009 0,-0.12492 -0.37638,-0.38304 -0.83641,-0.57359 -0.46003,-0.19055 -1.38277,-0.71953 -2.05052,-1.17551 -0.66776,-0.45599 -1.5713,-1.01187 -2.00786,-1.23531 -0.43656,-0.22343 -1.27833,-0.67204 -1.87059,-0.99691 l -1.07684,-0.59066 -2.09816,1.21627 c -1.15399,0.66895 -2.27675,1.33695 -2.49503,1.48443 -0.21828,0.14749 -0.96917,0.55007 -1.66865,0.89463 l -1.27177,0.62648 -3.68916,-2.14086 c -3.25351,-1.88804 -3.68917,-2.22242 -3.68917,-2.8315 0,-0.91398 0.94743,-1.76521 3.6646,-3.29251 1.21517,-0.68303 2.82991,-1.63881 3.58832,-2.12396 0.75841,-0.48515 2.02637,-1.23881 2.81769,-1.6748 0.79132,-0.43599 2.11561,-1.16576 2.94287,-1.6217 l 1.50411,-0.82898 3.47965,1.74365 c 1.91381,0.95901 5.22555,2.7345 7.35943,3.94553 6.61593,3.75469 7.29281,4.02444 7.99013,3.18422 0.18628,-0.22445 1.45088,-1.02812 2.81023,-1.78594 1.35935,-0.75782 2.47168,-1.44523 2.47184,-1.52757 1.6e-4,-0.0823 -0.50572,-0.42891 -1.12418,-0.77015 -0.61847,-0.34123 -2.79136,-1.65884 -4.82865,-2.92802 -2.03729,-1.26917 -4.89479,-2.93301 -6.35,-3.69743 -2.51214,-1.3196 -6.84265,-3.97301 -6.68721,-4.09741 0.47528,-0.38036 8.60918,-4.968583 8.80388,-4.966143 0.25532,0.003 7.29167,4.157783 11.64166,6.873793 1.16417,0.72687 3.30418,2.0156 4.75558,2.86385 l 2.63892,1.54227 3.18192,-1.67766 c 2.85181,-1.5036 6.11446,-3.33678 8.9366,-5.02117 l 0.99219,-0.59219 -0.008,-5.067103 -0.008,-5.06709 -1.86517,-1.13309 -1.86516,-1.1331 -0.83892,0.51661 c -0.46142,0.28413 -2.68441,1.44012 -4.93998,2.56887 -2.25557,1.12874 -4.37442,2.26106 -4.70856,2.51625 -0.33413,0.25519 -1.41687,0.77325 -2.40608,1.15125 l -1.79856,0.68727 -3.94392,-2.33969 c -2.16916,-1.28683 -4.73432,-2.78124 -5.70036,-3.32091 -1.23677,-0.69091 -1.85507,-1.21934 -2.08982,-1.78608 -0.43888,-1.05954 -0.3966,-1.09673 3.97855,-3.50002 4.02268,-2.20968 3.26954,-2.18223 6.59806,-0.24052 l 1.70327,0.99361 2.25799,-1.1428 c 1.24189,-0.62855 2.29786,-1.18267 2.34658,-1.2314 0.15667,-0.15666 -12.8677,-7.81979 -13.29064,-7.81979 -0.22428,0 -0.97361,0.40202 -1.66517,0.89337 -0.69156,0.49136 -1.6741,1.10199 -2.18342,1.35696 -0.50933,0.25497 -2.1762,1.2666 -3.70417,2.24808 -1.52797,0.98148 -4.52531,2.81391 -6.66076,4.07207 l -3.88264,2.28756 -3.79028,-2.29148 c -2.08465,-1.26031 -4.62372,-2.76284 -5.64236,-3.33895 -3.85535,-2.18046 -7.42969,-4.28887 -7.99864,-4.71818 -0.58366,-0.4404 -0.54791,-0.47069 3.175,-2.69024 2.07092,-1.23466 4.03678,-2.38626 4.36857,-2.55912 0.62959,-0.328 0.69324,-0.29674 8.19257,4.0225 l 1.65209,0.95152 2.58125,-1.70187 c 1.41968,-0.93603 3.3877,-2.26601 4.37337,-2.95551 2.15317,-1.50621 2.45624,-1.1262 -3.5293,-4.42521 l -4.14687,-2.285598 -0.19206,-5.913281 c -0.18319,-5.639889 -0.16663,-5.970785 0.35814,-7.157116 l 0.55021,-1.243838 0.86409,0.522385 c 1.39095,0.84091 4.76507,2.745256 5.62658,3.175633 1.59653,0.797565 1.71979,1.030422 1.71979,3.248911 v 2.054079 l 0.99134,0.616892 c 1.38814,0.863817 7.32817,4.159538 7.38839,4.099322 0.0273,-0.02729 -0.0194,-2.972361 -0.10376,-6.544601 l -0.15337,-6.494978 -3.99515,-2.374207 -3.99516,-2.374206 0.004,-4.934302 c 0.002,-2.713864 0.0875,-5.017342 0.18899,-5.118838 0.10149,-0.101496 3.93382,1.999189 8.51627,4.668189 l 8.33174,4.852725 0.13516,1.333479 c 0.0743,0.733412 0.3179,6.145585 0.54126,12.02705 0.22335,5.881468 0.43586,10.71647 0.47224,10.74445 0.27661,0.21276 7.40341,4.35885 7.49251,4.35885 0.0628,0 0.11426,-2.19726 0.11426,-4.8828 v -4.882804 l 0.89394,-0.167706 c 0.74255,-0.139303 1.24664,0.03075 2.97657,1.004112 1.14544,0.644499 2.65318,1.452558 3.35053,1.795678 0.69736,0.34313 1.39309,0.77468 1.54607,0.95902 0.16204,0.19524 0.35067,2.68423 0.45187,5.96251 l 0.17373,5.62737 2.77813,1.63699 c 1.52797,0.90035 2.89718,1.64377 3.04271,1.65204 0.14552,0.008 2.16958,-1.09789 4.49791,-2.45816 l 4.23334,-2.47322 0.0702,-7.74136 c 0.0647,-7.131904 0.0334,-7.770425 -0.39688,-8.110438 -1.37178,-1.083959 -10.4022,-6.969667 -11.21387,-7.308805 -1.05437,-0.440542 -9.77767,-6.191991 -10.08509,-6.649302 -0.10691,-0.159041 -0.19621,-6.093462 -0.19844,-13.187602 l -0.004,-12.898437 1.25677,0.0011 c 0.96326,8.73e-4 1.53484,0.189633 2.4474,0.808261 0.65484,0.443921 1.905,1.171156 2.77813,1.616078 2.74712,1.399863 2.51354,0.454593 2.51354,10.171842 v 8.54655 l 2.05052,1.310198 c 1.12778,0.720608 2.40771,1.564833 2.84427,1.876054 0.62075,0.442532 4.26775,2.736006 7.73906,4.866846 0.2611,0.160274 0.33073,-1.158258 0.33073,-6.26279 v -6.465807 l -0.73981,-0.306442 c -0.4069,-0.168542 -1.62729,-0.89706 -2.71198,-1.618928 -1.08469,-0.721868 -2.121,-1.312789 -2.3029,-1.313158 -0.25851,-5.29e-4 -0.33073,-2.104816 -0.33073,-9.637662 v -9.636991 l 0.68498,-0.81405 c 0.37674,-0.447727 0.82323,-0.80667 0.99219,-0.797649 0.16896,0.009 1.91455,0.935558 3.87908,2.058979 l 3.57188,2.042583 0.13229,5.791384 0.13229,5.791385 1.05834,0.568576 c 0.58208,0.312717 1.92001,1.130619 2.97319,1.81756 l 1.91485,1.248983 0.0695,9.213959 0.0695,9.213958 1.85208,-1.160528 c 1.01865,-0.638294 2.578468,-1.53194 3.466278,-1.985886 l 1.61418,-0.825355 0.17078,-3.732982 c 0.0939,-2.05314 0.17122,-8.102809 0.17175,-13.443708 l 10e-4,-9.710726 1.12448,-0.770868 c 0.61846,-0.423978 1.74472,-1.084096 2.50279,-1.466929 0.75807,-0.382833 1.94224,-1.053693 2.63149,-1.490801 2.54436,-1.61364 2.73699,-1.184876 2.73699,6.09237 v 5.539296 l 2.05052,-1.225232 c 5.07989,-3.03535 5.15605,-3.070359 6.15156,-2.827825 l 0.92604,0.225609 0.0723,4.547658 0.0723,4.547659 -1.79212,0.973271 c -0.98566,0.5353 -2.56602,1.482167 -3.5119,2.104148 -0.94589,0.621982 -2.22373,1.383377 -2.83966,1.691988 l -1.11986,0.561112 -0.0708,6.542042 -0.0708,6.54204 -1.78385,1.193998 c -2.19757,1.470917 -5.31287,3.407841 -6.55052,4.072758 -0.50932,0.273629 -2.29526,1.352835 -3.96875,2.398238 -1.673488,1.045403 -3.251068,1.978647 -3.505728,2.073876 -0.42624,0.15939 -0.46302,0.778248 -0.46302,7.791032 v 7.61788 l 2.05052,1.22268 c 1.12779,0.67248 3.095528,1.78508 4.372768,2.47246 l 2.32224,1.24977 3.35221,-1.9104 c 1.84371,-1.05073 4.40034,-2.55876 5.6814,-3.35119 l 2.32919,-1.44078 v -2.89439 c 0,-1.59192 -0.0691,-2.89439 -0.15354,-2.89439 -0.0844,0 -1.44533,0.66076 -3.02418,1.46836 -1.57884,0.8076 -3.23615,1.57319 -3.68291,1.70132 l -0.81228,0.23296 v -4.95078 -4.950782 l 3.27847,-1.783125 c 1.80316,-0.980721 3.73793,-2.097633 4.29948,-2.48203 1.69304,-1.15893 7.25202,-4.052593 7.78538,-4.052593 1.07165,0 1.30351,1.204732 1.33413,6.932172 0.0158,2.954023 0.10509,6.041518 0.19844,6.861098 l 0.16972,1.49014 1.62131,-0.96098 c 0.89172,-0.52853 2.26094,-1.33831 3.04271,-1.7995 0.78177,-0.46119 1.68929,-1.03229 2.01671,-1.26912 l 0.59531,-0.4306 V 55.693694 45.549742 l 1.78594,-1.052775 c 0.98227,-0.579027 3.75047,-2.097447 6.15156,-3.374265 2.4011,-1.276819 5.02047,-2.711312 5.82084,-3.187764 0.80036,-0.476453 1.89266,-0.947692 2.42733,-1.047197 l 0.97212,-0.180919 0.1663,1.150161 c 0.0915,0.632588 0.13026,2.817036 0.0862,4.854327 l -0.0801,3.704167 -4.20703,2.220505 -4.20704,2.220505 0.15887,4.623339 c 0.0874,2.542836 0.21207,4.676545 0.27709,4.741571 0.065,0.06503 1.86264,-0.788403 3.99468,-1.896509 l 3.87645,-2.014739 1.37641,0.637072 c 2.64258,1.223118 5.78839,3.295107 6.3133,4.15825 0.28357,0.466296 0.4794,0.86651 0.43518,0.889365 -0.0442,0.02286 -0.73525,0.469185 -1.53562,0.991843 -0.80036,0.522661 -3.27517,2.025999 -5.49957,3.340758 l -4.04437,2.39047 0.86937,0.51972 c 0.47815,0.28584 2.05999,1.14249 3.5152,1.90366 l 2.64583,1.38395 4.23334,-2.35638 c 2.32833,-1.29602 4.70087,-2.67912 5.27232,-3.07357 1.71465,-1.18357 1.96358,-1.1606 4.98469,0.4599 3.22191,1.72821 4.95653,2.92934 4.95653,3.43212 0,0.45291 -1.1711,1.63634 -2.08385,2.10579 -0.84838,0.43635 -3.79652,2.1615 -9.55782,5.59294 -5.32292,3.17034 -7.35185,4.16164 -8.06638,3.9411 -0.29292,-0.0904 -3.92586,-1.98693 -8.0732,-4.21449 -4.14735,-2.22755 -7.66481,-4.08741 -7.81658,-4.13301 -0.29945,-0.09 -11.96091,6.2561 -13.83693,7.52995 -0.63156,0.42884 -1.04828,0.87391 -0.92604,0.98905 0.40479,0.38126 4.66224,2.65158 5.22545,2.78651 0.37291,0.0893 1.75786,-0.56641 4.25189,-2.01318 l 3.69883,-2.14568 5.03242,2.57319 c 4.93945,2.52565 8.6063,4.60428 8.60224,4.87635 -0.012,0.80386 -6.12584,4.86226 -7.80316,5.17976 -0.60853,0.11518 -1.34168,-0.12949 -3.14189,-1.04854 -1.66498,-0.85001 -2.47325,-1.13152 -2.77813,-0.96758 -0.23649,0.12716 -1.91484,1.08468 -3.72966,2.12781 -1.81483,1.04313 -3.36538,1.91758 -3.44569,1.94323 -0.13341,0.0426 -7.70934,-3.93611 -13.26575,-6.9669 l -2.28403,-1.24585 -2.14549,1.21927 -2.14549,1.21928 -0.002,5.06083 c -0.002,3.73361 0.0845,5.130143 0.32848,5.325093 0.18191,0.14534 2.29526,1.36254 4.69636,2.70489 2.40109,1.34234 5.46493,3.09385 6.80853,3.89225 l 2.44291,1.45162 3.90709,-2.12251 c 2.1489,-1.16738 4.44288,-2.35204 5.09772,-2.63258 0.65484,-0.28054 2.72688,-1.35986 4.60453,-2.39848 1.87752,-1.03862 3.51176,-1.888403 3.6315,-1.888403 0.1789,0 4.38969,2.347233 10.71781,5.974453 0.89641,0.51382 2.44505,2.39394 2.1573,2.61907 -0.47178,0.36912 -8.03959,4.10648 -8.31524,4.10648 -0.20412,0 -0.81617,-0.28094 -1.36011,-0.62432 -0.54394,-0.34337 -1.5119,-0.87696 -2.15102,-1.18575 l -1.16204,-0.56144 -2.40779,1.18554 c -1.32428,0.65205 -3.08773,1.58002 -3.91878,2.06217 l -1.51101,0.87662 1.37871,0.81408 c 0.7583,0.44775 2.21216,1.26427 3.2308,1.81449 1.01865,0.55022 3.07907,1.70193 4.57872,2.55934 l 2.72664,1.55895 1.12721,-0.54567 c 0.61997,-0.30013 1.2233,-0.54568 1.34074,-0.54568 0.11744,0 2.15526,-1.07156 4.5285,-2.38125 2.37323,-1.30968 4.60842,-2.38125 4.96708,-2.38125 1.13681,0 8.38547,4.54746 8.3784,5.25621 -0.002,0.20231 -0.98313,0.78551 -3.96708,2.35816 -5.60644,2.95481 -6.61458,3.5304 -6.61458,3.77651 0,0.0831 1.42881,0.96008 3.17513,1.94885 2.98781,1.69168 4.49778,2.93557 4.49778,3.70519 0,0.18456 -0.20836,0.51414 -0.46302,0.73239 -0.69194,0.59303 -4.86487,3.04841 -6.18604,3.63991 l -1.15453,0.5169 -1.05914,-0.62039 c -0.58253,-0.34121 -2.00954,-1.12079 -3.17113,-1.73239 -1.1616,-0.61161 -2.41175,-1.31784 -2.77813,-1.56941 -0.75114,-0.51578 -4.18998,-2.40151 -4.37941,-2.40151 -0.0677,0 -0.11984,2.41101 -0.11575,5.35781 l 0.007,5.35781 4.87661,2.75774 c 2.68214,1.51676 4.93956,2.9218 5.01651,3.1223 0.0769,0.20051 0.21927,2.0273 0.31628,4.05952 0.13113,2.74699 0.0871,3.9654 -0.1715,4.74906 -0.19134,0.57975 -0.40837,1.05409 -0.4823,1.05409 -0.0739,0 -4.2816,-2.33298 -9.35036,-5.1844 l -9.21594,-5.18439 -0.0349,-3.74529 c -0.0192,-2.05991 -0.1085,-6.95313 -0.19844,-10.87382 l -0.16352,-7.12853 -3.83646,-2.13654 c -2.11005,-1.17509 -4.69953,-2.6975 -5.75439,-3.38313 -1.83085,-1.18999 -3.85188,-2.31598 -4.15694,-2.31598 -0.20241,0 -0.17786,7.07896 0.0298,8.594 0.16905,1.23335 0.21774,1.28862 2.34287,2.65956 2.50425,1.61552 2.39782,1.35208 2.66892,6.60581 0.16815,3.25867 -0.0594,4.63021 -0.7681,4.63021 -0.62495,0 -10.0863,-5.28198 -12.52077,-6.98996 -0.542,-0.38026 -0.57029,-0.65455 -0.73102,-7.0877 -0.092,-3.68067 -0.23885,-8.33431 -0.32641,-10.34142 l -0.15921,-3.6493 -1.41607,-0.90585 c -0.77884,-0.49821 -2.01183,-1.20774 -2.73998,-1.57672 l -1.32391,-0.67088 -3.42812,1.96981 c -1.885468,1.0834 -3.852048,2.24448 -4.370168,2.58019 l -0.94203,0.61037 -0.003,9.83652 -0.003,9.83651 1.52135,0.71326 c 2.11764,0.9928 6.890078,3.74577 8.003648,4.61686 0.50932,0.39843 2.44774,1.59912 4.3076,2.6682 1.85986,1.06909 3.7351,2.28944 4.16719,2.71189 l 0.78562,0.76809 v 11.56415 11.56415 l -0.61236,0.57529 c -0.33679,0.31641 -0.83255,0.57529 -1.10167,0.57529 -0.53721,0 -5.31685,-2.58288 -6.68648,-3.61332 l -0.85989,-0.64694 v -7.78528 -7.78528 l -2.04499,-1.19709 c -1.12474,-0.6584 -2.12156,-1.19709 -2.21515,-1.19709 -0.0936,0 -1.26157,-0.65484 -2.595508,-1.45521 -1.33394,-0.80036 -2.48024,-1.45521 -2.54735,-1.45521 -0.0671,0 -0.122,3.07635 -0.122,6.83633 0,3.75997 -0.0789,9.72421 -0.17529,13.25386 l -0.17528,6.41754 -0.9492,0.59574 c -0.52205,0.32766 -2.08028,1.23211 -3.46273,2.00989 -1.38245,0.77778 -3.16839,1.85463 -3.96875,2.393 -1.39629,0.93922 -3.38058,1.53737 -3.77884,1.13911 z m 12.24551,-73.47074 4.365628,-2.45314 0.0623,-5.149863 0.0623,-5.14985 -4.163318,-2.4311 c -2.28982,-1.33711 -4.35725,-2.50517 -4.59427,-2.59569 -0.27705,-0.10581 -1.95377,0.76241 -4.69496,2.4311 l -4.26398,2.59569 -10e-4,5.17834 -0.001,5.178333 1.91823,1.06773 c 1.05502,0.58724 2.98979,1.67302 4.29947,2.41283 1.30969,0.73981 2.44079,1.35043 2.51355,1.35694 0.0728,0.007 2.09683,-1.09209 4.49792,-2.44132 z"
       id="path52" />
  </g>
</svg>
