<?xml version="1.0" encoding="UTF-8" standalone="no"?>
<!-- Created with Inkscape (http://www.inkscape.org/) -->

<svg
   xmlns:dc="http://purl.org/dc/elements/1.1/"
   xmlns:cc="http://creativecommons.org/ns#"
   xmlns:rdf="http://www.w3.org/1999/02/22-rdf-syntax-ns#"
   xmlns:svg="http://www.w3.org/2000/svg"
   xmlns="http://www.w3.org/2000/svg"
   xmlns:sodipodi="http://sodipodi.sourceforge.net/DTD/sodipodi-0.dtd"
   xmlns:inkscape="http://www.inkscape.org/namespaces/inkscape"
   width="7.5mm"
   height="7.5mm"
   viewBox="0 0 7.5 7.4999998"
   version="1.1"
   id="svg6329"
   inkscape:version="0.92.3 (2405546, 2018-03-11)"
   sodipodi:docname="tablet.svg">
  <defs
     id="defs6323" />
  <sodipodi:namedview
     id="base"
     pagecolor="#ffffff"
     bordercolor="#666666"
     borderopacity="1.0"
     inkscape:pageopacity="0.0"
     inkscape:pageshadow="2"
     inkscape:zoom="3.959798"
     inkscape:cx="23.23092"
     inkscape:cy="-20.204848"
     inkscape:document-units="mm"
     inkscape:current-layer="layer1"
     showgrid="false"
     inkscape:window-width="1920"
     inkscape:window-height="1017"
     inkscape:window-x="1912"
     inkscape:window-y="-8"
     inkscape:window-maximized="1"
     units="mm" />
  <metadata
     id="metadata6326">
    <rdf:RDF>
      <cc:Work
         rdf:about="">
        <dc:format>image/svg+xml</dc:format>
        <dc:type
           rdf:resource="http://purl.org/dc/dcmitype/StillImage" />
        <dc:title></dc:title>
      </cc:Work>
    </rdf:RDF>
  </metadata>
  <g
     inkscape:label="Layer 1"
     inkscape:groupmode="layer"
     id="layer1"
     transform="translate(0,-289.50004)">
    <path
       inkscape:connector-curvature="0"
       id="path1704"
       style="fill:#000000;fill-opacity:1;fill-rule:nonzero;stroke:none;stroke-width:0.35277775"
       d="m 1.8623498,291.56709 c -0.28928,-0.0783 -0.11042,-0.3623 0.0109,-0.49601 0.36125,-0.37747 0.43674,-0.82832 0.99766,-0.92321 0.8449,-0.40111 1.9184,-0.57327 2.62678,0.0469 0.0702,0.0441 0.0868,0.11994 0.0342,0.23424 -0.0646,0.2921 -0.0882,0.56621 -0.22331,0.64629 -0.0152,0.47519 -0.24659,0.48789 -0.20108,0.62688 -0.19297,0.23425 -0.25083,0.34185 -0.26988,0.53905 0.0148,0.22437 -0.21801,0.6283 -0.45755,1.01 -0.19861,-0.0511 -0.40111,-0.1531 -0.56515,-0.37641 -0.11712,-0.13476 -0.19579,-0.22719 -0.43145,-0.31115 -0.26846,-0.0621 -0.62406,-0.21379 -0.82656,-0.4385 -0.0275,-0.21908 -0.1531,-0.20779 -0.20955,-0.23425 -0.16263,-0.20108 -0.39405,-0.18309 -0.48507,-0.32385 z" />
    <path
       inkscape:connector-curvature="0"
       id="path1706"
       style="fill:#000000;fill-opacity:1;fill-rule:nonzero;stroke:none;stroke-width:0.35277775"
       d="m 4.8965898,293.20574 c 0.10619,-0.12417 0.127,-0.29915 0.145,-0.47554 0.27128,-0.23425 0.28116,-0.70838 0.38311,-0.89853 0.0441,-0.32632 0.16369,-0.3817 0.25083,-0.71367 0.0579,-0.13511 0.1143,-0.109 0.17215,-0.0261 0.1778,0.12665 0.27129,0.35948 0.40781,0.68616 0.22755,0.22754 0.17357,0.62018 0.26741,0.97014 0.26458,0.53728 0.24095,1.30351 0.2219,1.65911 -0.2025,-0.10195 -1.00754,0.10477 -1.47885,0.27693 -0.0441,-0.14887 0.003,-0.31962 -0.17215,-0.43533 -0.19968,-0.21766 -0.19015,-0.40393 -0.25083,-0.62159 -0.11148,-0.20532 -0.008,-0.30304 0.0536,-0.42157 z" />
    <path
       inkscape:connector-curvature="0"
       id="path1708"
       style="fill:#000000;fill-opacity:1;fill-rule:nonzero;stroke:none;stroke-width:0.35277775"
       d="m 1.4432498,296.47705 c -0.24236,-1.2319 -0.49318043,-2.24472 -0.3718299,-4.33811 -0.0318,-0.16933 0.0811,-0.20919 0.2963399,-0.15698 0.66957,0.51541 0.50976,0.15028 1.36278,0.67098 0.45473,0.13511 0.17497,0.33655 0.59372,0.39582 1.09996,0.51258 1.22238,0.94121 1.50072,1.66052 0.11324,0.76059 0.19297,1.02094 0.19297,1.58891 0.006,0.14182 -0.0977,0.26564 -0.32773,0.17216 -1.44145,10e-4 -0.92887,0.24236 -3.19017,0.35701 0.0579,-0.18344 -0.0981,-0.23848 -0.0568,-0.35031 z" />
  </g>
</svg>
